<?xml version="1.0" encoding="UTF-8" standalone="no"?>
<!-- Created with Inkscape (http://www.inkscape.org/) -->

<svg
   version="1.1"
   id="svg1"
   width="953.33331"
   height="166.66667"
   viewBox="0 0 953.33331 166.66667"
   xmlns="http://www.w3.org/2000/svg"
   xmlns:svg="http://www.w3.org/2000/svg">
  <defs
     id="defs1">
    <clipPath
       clipPathUnits="userSpaceOnUse"
       id="clipPath7">
      <path
         d="M 0,0 H 720 V 480 H 0 Z"
         id="path7" />
    </clipPath>
    <pattern
       patternTransform="matrix(0.00758868,0,0,0.00761682,121.66023,-201.80079)"
       patternUnits="userSpaceOnUse"
       x="0"
       y="0"
       width="720"
       height="480"
       id="pattern8">
      <g
         id="g8">
        <path
           d="m 0,-50 100,0 0,200 -100,0 0,-200 z"
           style="fill:#828282;fill-opacity:1;fill-rule:nonzero;stroke:none"
           clip-path="url(#clipPath7)"
           id="path8" />
      </g>
    </pattern>
  </defs>
  <g
     id="g1">
    <path
       id="path1"
       d="M 6.195,31.887 H 21.519 V 100.18 H 6.195 Z"
       style="fill:#d2e8fe;fill-opacity:1;fill-rule:nonzero;stroke:none"
       transform="scale(1.3333333)" />
    <path
       id="path2"
       d="M 94.058,70.215 H 290.672"
       style="fill:none;stroke:#000000;stroke-width:2.09194;stroke-linecap:butt;stroke-linejoin:miter;stroke-miterlimit:4;stroke-dasharray:none;stroke-opacity:1"
       transform="scale(1.3284067,1.3333333)" />
    <path
       id="path3"
       d="m 296.706,70.215 -9.046,5.23 V 64.988 Z"
       style="fill:#000000;fill-opacity:1;fill-rule:evenodd;stroke:#000000;stroke-width:1.39462;stroke-linecap:butt;stroke-linejoin:miter;stroke-miterlimit:4;stroke-dasharray:none;stroke-opacity:1"
       transform="scale(1.3284067,1.3333333)" />
    <path
       id="path4"
       d="m 53.809,31.887 h 43.41 v 68.293 h -43.41 z"
       style="fill:#d2ffd8;fill-opacity:1;fill-rule:nonzero;stroke:none"
       transform="scale(1.3333333)" />
    <path
       id="path5"
       d="M 21.52,31.887 H 53.809 V 100.18 H 21.52 Z"
       style="fill:#fbd2fc;fill-opacity:1;fill-rule:nonzero;stroke:none"
       transform="scale(1.3333333)" />
    <path
       d="M 6.218,31.883 H 97.579 V 100.18 H 6.218 Z"
       style="fill:#b3b3b3;fill-opacity:1;fill-rule:nonzero;stroke:#000000;stroke-width:0.119594;stroke-linecap:butt;stroke-linejoin:miter;stroke-miterlimit:4;stroke-dasharray:none;stroke-opacity:1"
       transform="scale(1.3284067,1.3333333)"
       opacity="0.099839"
       id="path6" />
    <g
       opacity="0.835749"
       id="g10">
      <path
         d="M 6.195,31.883 H 97.218 V 100.18 H 6.195 Z"
         style="fill:url(#pattern8);fill-opacity:1;fill-rule:nonzero;stroke:none"
         transform="scale(1.3333333)"
         id="path9" />
      <path
         d="M 6.218,31.883 H 97.579 V 100.18 H 6.218 Z"
         style="fill:none;stroke:#000000;stroke-width:0.119594;stroke-linecap:butt;stroke-linejoin:miter;stroke-miterlimit:4;stroke-dasharray:none;stroke-opacity:1"
         transform="scale(1.3284067,1.3333333)"
         id="path10" />
    </g>
    <path
       id="path11"
       d="M 6.634,31.469 H 97.995 V 99.762 H 6.634 Z"
       style="fill:none;stroke:#000000;stroke-width:0.689052;stroke-linecap:butt;stroke-linejoin:miter;stroke-miterlimit:4;stroke-dasharray:none;stroke-opacity:1"
       transform="scale(1.3284067,1.3333333)" />
    <path
       id="path12"
       d="m 6.203,31.891 v 68.3 H 97.579 V 97.145 C 51.601,96.102 11.919,104.363 8.669,31.891 Z"
       style="fill:#e2e3db;fill-opacity:1;fill-rule:nonzero;stroke:#000000;stroke-width:0.689052;stroke-linecap:butt;stroke-linejoin:miter;stroke-miterlimit:4;stroke-dasharray:none;stroke-opacity:1"
       transform="scale(1.3284067,1.3333333)" />
    <path
       id="path13"
       d="m 197.312,60.438 c 0.188,0 0.344,0.156 0.344,0.347 v 2.07 c 0,0.192 -0.156,0.348 -0.344,0.348 -0.191,0 -0.343,-0.156 -0.343,-0.348 v -2.07 c 0,-0.191 0.152,-0.347 0.343,-0.347 z"
       style="fill:#ececec;fill-opacity:1;fill-rule:nonzero;stroke:none"
       transform="scale(1.3333333)" />
    <path
       id="path14"
       d="m 197.312,60.438 c 0.188,0 0.344,0.156 0.344,0.347 v 2.07 c 0,0.192 -0.156,0.348 -0.344,0.348 -0.191,0 -0.343,-0.156 -0.343,-0.348 v -2.07 c 0,-0.191 0.152,-0.347 0.343,-0.347 z"
       style="fill:#ececec;fill-opacity:1;fill-rule:nonzero;stroke:none"
       transform="scale(1.3333333)" />
    <path
       id="path15"
       d="M 354.905,13.859 V 121.648"
       style="fill:none;stroke:#808080;stroke-width:0.895899;stroke-linecap:butt;stroke-linejoin:miter;stroke-miterlimit:3.2;stroke-dasharray:7.16725, 7.16725;stroke-dashoffset:0;stroke-opacity:1"
       transform="scale(1.3284067,1.3333333)" />
    <path
       id="path16"
       d="m 6.21,31.883 v 68.305 H 97.583 V 97.137 C 82.088,96.785 67.311,97.492 54.4,95.809 41.266,94.094 30.064,89.91 22.015,79.625 14.491,70.02 9.716,55.09 8.673,31.883 Z"
       style="fill:#d2e8fe;fill-opacity:1;fill-rule:nonzero;stroke:#000000;stroke-width:1.25858;stroke-linecap:butt;stroke-linejoin:miter;stroke-miterlimit:4;stroke-dasharray:none;stroke-opacity:1"
       transform="scale(1.3284067,1.3333333)" />
    <path
       id="path17"
       d="M 21.953,100.164 V 79.602 C 14.461,69.996 9.703,55.066 8.664,31.859 H 6.207 v 68.305 z"
       style="fill:#d2e8fe;fill-opacity:1;fill-rule:nonzero;stroke:none"
       transform="scale(1.3333333)" />
    <path
       id="path18"
       d="m 54.223,95.785 v 4.379 H 97.246 V 97.117 C 81.809,96.766 67.086,97.469 54.223,95.785 Z"
       style="fill:#d2ffd8;fill-opacity:1;fill-rule:nonzero;stroke:none"
       transform="scale(1.3333333)" />
    <path
       id="path19"
       d="M 54.223,95.785 C 41.137,94.074 29.977,89.887 21.953,79.602 v 20.562 h 32.27 z"
       style="fill:#fbd2fc;fill-opacity:1;fill-rule:nonzero;stroke:none"
       transform="scale(1.3333333)" />
    <path
       id="path20"
       d="M 125.346,9.16 81.359,9.016 81.351,24.48"
       style="fill:none;stroke:#666666;stroke-width:2.09317;stroke-linecap:butt;stroke-linejoin:miter;stroke-miterlimit:4;stroke-dasharray:none;stroke-opacity:1"
       transform="scale(1.3284067,1.3333333)" />
    <path
       id="path21"
       d="m 30.474,-81.364 -9.055,5.231 0.002,-10.464 z"
       style="fill:#666666;fill-opacity:1;fill-rule:evenodd;stroke:#666666;stroke-width:1.39545;stroke-linecap:butt;stroke-linejoin:miter;stroke-miterlimit:4;stroke-dasharray:none;stroke-opacity:1"
       transform="matrix(-7.3776933e-4,1.3333333,-1.3284067,-7.4050533e-4,0,0)" />
    <path
       id="path22"
       d="m 170.18,32.328 63.104,17.352 0.172,42.273 -63.276,15.348 z"
       style="fill:#d7e3f4;fill-opacity:1;fill-rule:nonzero;stroke:#3771c8;stroke-width:0.936531;stroke-linecap:butt;stroke-linejoin:miter;stroke-miterlimit:4;stroke-dasharray:none;stroke-opacity:1"
       transform="scale(1.3284067,1.3333333)" />
    <path
       id="path23"
       d="m 202.059,73.316 c 0,-0.671 -0.657,-1.097 -1.371,-1.097 -0.942,0 -1.598,0.609 -1.946,1.816 -0.078,0.274 -0.246,1.055 -0.488,2.336 h -0.988 c -0.336,0 -0.504,0.016 -0.504,0.336 0,0.168 0.152,0.246 0.472,0.246 h 0.914 l -1.109,5.906 c -0.168,0.871 -0.32,1.512 -0.457,1.942 -0.184,0.562 -0.441,0.855 -0.777,0.855 -0.227,0 -0.41,-0.062 -0.578,-0.168 0.488,-0.078 0.73,-0.367 0.73,-0.855 0,-0.399 -0.199,-0.598 -0.609,-0.598 -0.516,0 -0.883,0.461 -0.883,0.977 0,0.672 0.625,1.101 1.34,1.101 0.383,0 0.73,-0.152 1.019,-0.472 0.488,-0.504 0.867,-1.223 1.141,-2.184 0.168,-0.598 0.32,-1.176 0.426,-1.758 l 0.882,-4.746 h 1.247 c 0.351,0 0.503,-0.015 0.503,-0.367 0,-0.137 -0.152,-0.215 -0.457,-0.215 h -1.171 c 0.093,-0.625 0.519,-2.93 0.656,-3.223 0.152,-0.32 0.363,-0.472 0.637,-0.472 0.23,0 0.425,0.062 0.593,0.168 -0.472,0.105 -0.715,0.383 -0.715,0.855 0,0.399 0.2,0.594 0.61,0.594 0.515,0 0.883,-0.457 0.883,-0.977 z"
       style="fill:#000000;fill-opacity:1;fill-rule:nonzero;stroke:none"
       transform="scale(1.3333333)" />
    <path
       id="path24"
       d="m 203.379,85.391 c 0.484,0 0.992,-0.289 1.484,-0.875 0.864,-1.004 1.649,-2.86 1.649,-4.618 0,-0.445 -0.078,-0.91 -0.227,-1.371 -0.195,-0.574 -0.558,-0.863 -1.086,-0.863 -0.484,0 -0.969,0.289 -1.476,0.871 -0.86,0.996 -1.657,2.852 -1.657,4.621 0,1.102 0.356,2.235 1.313,2.235 m 1.809,-7.407 c 0.355,0 0.539,0.411 0.539,1.243 0,0.464 -0.11,1.168 -0.325,2.085 h -2.117 c 0.266,-1.003 0.524,-1.75 0.793,-2.234 0.399,-0.726 0.777,-1.094 1.11,-1.094 m -2.012,3.758 h 2.109 c -0.207,0.875 -0.453,1.578 -0.723,2.106 -0.417,0.808 -0.804,1.218 -1.183,1.218 -0.356,0 -0.527,-0.418 -0.527,-1.25 0,-0.539 0.109,-1.23 0.324,-2.074 z"
       style="fill:#000000;fill-opacity:1;fill-rule:nonzero;stroke:none"
       transform="scale(1.3333333)" />
    <text
       id="text24"
       xml:space="preserve"
       transform="matrix(1.3333333,0,0,1.3382779,240.75796,86.934187)"><tspan
         id="tspan24"
         style="font-variant:normal;font-weight:500;font-size:11.7721px;font-family:'CMU Serif';writing-mode:lr-tb;fill:#000000;fill-opacity:1;fill-rule:nonzero;stroke:none"
         x="0"
         dx="0 0 0 0 0.32961956"
         y="0">Encoder</tspan></text>
    <path
       id="path25"
       d="m 106.883,0.32 h 98.105 V 18 h -98.105 z"
       style="fill:#fff6d5;fill-opacity:1;fill-rule:nonzero;stroke:#000000;stroke-width:0.63768;stroke-linecap:butt;stroke-linejoin:miter;stroke-miterlimit:4;stroke-dasharray:none;stroke-opacity:1"
       transform="scale(1.3284067,1.3333333)" />
    <text
       id="text25"
       xml:space="preserve"
       transform="matrix(1.3333333,0,0,1.338278,149.02349,15.891235)"><tspan
         id="tspan25"
         style="font-variant:normal;font-weight:500;font-size:11.015px;font-family:'CMU Serif';writing-mode:lr-tb;fill:#000000;fill-opacity:1;fill-rule:nonzero;stroke:none"
         x="0"
         dx="0 0 0 0 0 0 0 0 0 -0.30841979"
         y="0">Generative Filling</tspan></text>
    <path
       id="path26"
       d="m 306.156,55.895 h 17.227 c 4.773,0 8.613,3.859 8.613,8.648 v 9.879 c 0,4.793 -3.84,8.648 -8.613,8.648 h -17.227 c -4.773,0 -8.617,-3.855 -8.617,-8.648 v -9.879 c 0,-4.789 3.844,-8.648 8.617,-8.648 z"
       style="fill:#f4d7d7;fill-opacity:0.525692;fill-rule:nonzero;stroke:none"
       transform="scale(1.3333333)" />
    <path
       id="path27"
       d="m 307.292,55.895 h 17.29 c 4.791,0 8.645,3.859 8.645,8.648 v 9.879 c 0,4.793 -3.854,8.648 -8.645,8.648 h -17.29 c -4.792,0 -8.65,-3.855 -8.65,-8.648 v -9.879 c 0,-4.789 3.858,-8.648 8.65,-8.648 z"
       style="fill:none;stroke:#ff2a2a;stroke-width:0.746258;stroke-linecap:butt;stroke-linejoin:miter;stroke-miterlimit:4;stroke-dasharray:none;stroke-opacity:0.411067"
       transform="scale(1.3284067,1.3333333)" />
    <path
       id="path28"
       d="m 304.387,70.793 c 0.699,-0.352 1.476,-1.176 1.918,-1.926 0.277,-0.457 0.593,-1.129 0.976,-2.031 0.41,-0.965 0.715,-1.637 0.946,-2.047 0.242,-0.461 0.941,-1.133 1.613,-1.133 0.472,0 0.777,0.336 0.652,0.84 -0.074,0.293 -0.074,0.477 -0.027,0.535 0.105,0.137 0.258,0.199 0.473,0.199 l 0.179,-0.031 c 0.383,-0.058 0.656,-0.367 0.793,-0.929 0.215,-0.86 -0.457,-1.254 -1.293,-1.254 -1.465,0 -2.711,0.73 -3.746,2.214 -0.305,0.43 -0.641,1.118 -1.008,2.079 -0.625,1.636 -1.187,2.66 -1.718,3.058 -0.274,0.215 -0.567,0.414 -0.868,0.61 -0.445,0.261 -0.734,0.492 -0.871,0.66 -0.484,0.593 -0.82,1.129 -0.988,1.633 l 0.336,0.351 c 0.273,-0.504 0.578,-0.945 0.926,-1.359 0.293,-0.352 0.656,-0.52 1.097,-0.52 0.442,0 1.082,0.32 1.891,0.965 0.242,0.242 0.609,0.473 1.109,0.688 0.321,0.136 0.762,0.199 1.356,0.199 0.472,0 1.051,-0.278 1.707,-0.844 0.609,-0.504 1.035,-1.297 1.277,-2.367 0.078,-0.399 0.121,-0.719 0.121,-0.965 l -0.484,0.109 c -0.078,0.535 -0.168,0.93 -0.246,1.161 -0.242,0.75 -0.957,1.589 -1.824,1.589 -0.825,0 -1.996,-0.566 -2.668,-1.054 -0.364,-0.274 -0.914,-0.414 -1.629,-0.43 z"
       style="fill:#000000;fill-opacity:1;fill-rule:nonzero;stroke:none"
       transform="scale(1.3333333)" />
    <path
       id="path29"
       d="m 321.191,69.91 c 0,-0.984 -0.968,-1.512 -2.023,-1.512 h -3.574 c -0.246,0 -0.356,0.008 -0.356,0.258 0,0.172 0.215,0.16 0.344,0.16 0.324,0.012 0.516,0.036 0.57,0.043 0.055,0.012 0.078,0.047 0.078,0.098 0,0.023 -0.011,0.09 -0.046,0.195 l -1.418,5.739 c -0.055,0.238 -0.164,0.379 -0.325,0.433 -0.074,0.02 -0.269,0.031 -0.601,0.031 -0.227,0 -0.336,0.086 -0.336,0.262 0,0.106 0.109,0.16 0.336,0.16 h 3.801 c 0.699,0 1.343,-0.215 1.957,-0.636 0.679,-0.465 1.023,-1.039 1.023,-1.707 0,-0.856 -0.699,-1.375 -1.465,-1.524 0.949,-0.226 2.035,-0.953 2.035,-2 m -2.175,-1.094 c 0.746,0 1.121,0.348 1.121,1.051 0,0.551 -0.215,1.004 -0.668,1.371 -0.453,0.367 -0.957,0.539 -1.508,0.539 h -1.496 l 0.648,-2.593 c 0.086,-0.368 0.086,-0.368 0.535,-0.368 m 1.672,3.731 c 0.149,0.25 0.223,0.496 0.223,0.765 0,0.563 -0.215,1.051 -0.656,1.45 -0.442,0.398 -0.934,0.593 -1.508,0.593 h -1.453 c -0.106,0 -0.184,0 -0.227,-0.011 -0.062,0 -0.094,-0.02 -0.094,-0.051 0,-0.012 0,-0.043 0.008,-0.09 0.336,-1.371 0.594,-2.406 0.766,-3.101 h 1.98 c 0.465,0 0.778,0.152 0.961,0.445 z"
       style="fill:#000000;fill-opacity:1;fill-rule:nonzero;stroke:none"
       transform="scale(1.3333333)" />
    <path
       id="path30"
       d="m 322.656,74.082 c 0,-0.262 0.032,-0.477 0.086,-0.648 0,-0.11 -0.054,-0.164 -0.172,-0.164 -0.054,0 -0.097,0.023 -0.117,0.042 -0.055,0.055 -0.668,2.379 -0.668,2.551 0,0.098 0.055,0.153 0.16,0.153 0.055,0 0.129,-0.055 0.227,-0.172 l 0.484,-0.574 c 0.379,0.496 0.981,0.746 1.797,0.746 0.711,0 1.336,-0.293 1.895,-0.864 0.562,-0.574 0.84,-1.211 0.84,-1.925 0,-0.508 -0.172,-0.942 -0.528,-1.286 -0.16,-0.14 -0.375,-0.257 -0.644,-0.355 -0.246,-0.055 -0.485,-0.121 -0.723,-0.184 l -0.711,-0.195 c -0.355,-0.098 -0.621,-0.496 -0.621,-0.93 0,-0.465 0.18,-0.863 0.559,-1.211 0.375,-0.343 0.796,-0.519 1.257,-0.519 0.993,0 1.489,0.543 1.489,1.609 0,0.196 -0.043,0.414 -0.043,0.598 v 0.031 c 0.031,0.074 0.086,0.117 0.172,0.117 0.097,0 0.16,-0.086 0.203,-0.246 l 0.57,-2.347 c 0,-0.094 -0.055,-0.149 -0.16,-0.149 -0.055,0 -0.129,0.055 -0.227,0.172 l -0.461,0.563 c -0.304,-0.489 -0.808,-0.735 -1.531,-0.735 -0.68,0 -1.293,0.258 -1.828,0.766 -0.563,0.519 -0.84,1.113 -0.84,1.793 0,0.781 0.504,1.394 1.141,1.566 l 1.129,0.293 c 0.582,0.164 0.949,0.367 0.949,1.094 0,0.496 -0.195,0.937 -0.57,1.328 -0.379,0.387 -0.809,0.594 -1.293,0.594 -1.055,0 -1.821,-0.465 -1.821,-1.512 z"
       style="fill:#000000;fill-opacity:1;fill-rule:nonzero;stroke:none"
       transform="scale(1.3333333)" />
    <path
       id="path31"
       d="m 3.789,116.426 c 1.395,0 2.699,-0.488 3.891,-1.453 1.191,-0.961 1.972,-2.145 2.316,-3.52 0.117,-0.476 0.18,-0.91 0.18,-1.285 0,-1.129 -0.602,-1.887 -1.817,-2.273 -0.539,-0.168 -1.304,-0.258 -2.304,-0.258 l 0.078,-0.282 -0.129,-0.089 -0.899,0.41 c -1.164,0.078 -2.136,0.437 -2.941,1.078 -0.512,0.414 -0.832,0.887 -0.973,1.441 -0.117,0.461 -0.066,0.871 0.332,0.871 0.141,0 0.282,-0.074 0.45,-0.218 0.164,-0.141 0.265,-0.41 0.304,-0.821 0.039,-0.5 0.207,-0.875 0.528,-1.117 0.625,-0.5 1.343,-0.758 2.16,-0.773 l -0.957,3.867 c -0.192,0.762 -0.371,1.391 -0.578,1.851 -0.203,0.465 -0.434,0.797 -0.703,1.004 -0.68,0.551 -1.383,0.832 -2.125,0.832 L 0,116.426 M 8.68,109 c 0.281,0.371 0.422,0.848 0.422,1.414 0,0.332 -0.051,0.691 -0.141,1.078 -0.371,1.504 -0.988,2.594 -1.844,3.278 -0.449,0.359 -0.894,0.601 -1.371,0.742 -0.394,0.117 -0.984,0.179 -1.789,0.179 h -1.5 l -0.012,-0.062 0.539,-0.449 c 0.395,-0.321 0.727,-0.707 1.024,-1.145 0.496,-0.746 0.894,-1.734 1.203,-2.953 l 0.715,-2.945 c 1.41,0.015 2.332,0.297 2.754,0.863 z"
       style="fill:#000000;fill-opacity:1;fill-rule:nonzero;stroke:none"
       transform="scale(1.3333333)" />
    <path
       id="path32"
       d="m 15.617,117.098 c 0,-0.082 -0.047,-0.129 -0.144,-0.129 -0.075,0 -0.125,0.062 -0.153,0.191 -0.183,0.719 -0.398,1.082 -0.644,1.082 -0.153,0 -0.235,-0.129 -0.235,-0.383 0,-0.117 0.036,-0.336 0.118,-0.656 l 0.515,-2.043 c 0.047,-0.172 0.063,-0.269 0.063,-0.316 0,-0.184 -0.098,-0.274 -0.297,-0.274 -0.192,0 -0.317,0.11 -0.379,0.321 -0.191,-0.34 -0.465,-0.5 -0.809,-0.5 -0.586,0 -1.101,0.297 -1.554,0.898 -0.418,0.563 -0.625,1.145 -0.625,1.754 0,0.789 0.461,1.461 1.222,1.461 0.387,0 0.77,-0.207 1.129,-0.625 0.102,0.344 0.41,0.625 0.832,0.625 0.625,0 0.817,-0.734 0.961,-1.406 m -1.422,-2.09 c 0.082,0.191 0.129,0.316 0.129,0.398 0,0.035 -0.012,0.082 -0.019,0.145 l -0.442,1.746 c -0.027,0.098 -0.093,0.207 -0.172,0.316 -0.336,0.418 -0.664,0.629 -0.98,0.629 -0.352,0 -0.531,-0.273 -0.531,-0.808 0,-0.219 0.054,-0.547 0.16,-0.985 0.191,-0.769 0.465,-1.289 0.797,-1.57 0.183,-0.152 0.355,-0.227 0.527,-0.227 0.242,0 0.426,0.118 0.531,0.356 z"
       style="fill:#000000;fill-opacity:1;fill-rule:nonzero;stroke:none"
       transform="scale(1.3333333)" />
    <path
       id="path33"
       d="m 20.812,117.098 c 0,-0.082 -0.046,-0.129 -0.144,-0.129 -0.082,0 -0.129,0.062 -0.156,0.191 -0.043,0.172 -0.09,0.344 -0.153,0.516 -0.117,0.375 -0.281,0.566 -0.48,0.566 -0.16,0 -0.242,-0.129 -0.242,-0.383 0,-0.156 0.062,-0.464 0.179,-0.918 l 0.246,-0.961 c 0.079,-0.328 0.153,-0.554 0.208,-0.835 l 0.054,-0.247 c 0.016,-0.062 0.028,-0.109 0.028,-0.136 0,-0.184 -0.102,-0.274 -0.301,-0.274 -0.199,0 -0.324,0.11 -0.379,0.336 l -0.668,2.692 c -0.012,0.027 -0.047,0.089 -0.121,0.199 -0.145,0.234 -0.496,0.527 -0.86,0.527 -0.343,0 -0.515,-0.238 -0.515,-0.699 0,-0.375 0.164,-0.973 0.48,-1.809 0.102,-0.273 0.153,-0.464 0.153,-0.574 0,-0.453 -0.317,-0.769 -0.766,-0.769 -0.41,0 -0.727,0.226 -0.953,0.679 -0.172,0.356 -0.262,0.598 -0.262,0.727 0,0.082 0.047,0.129 0.145,0.129 0.117,0 0.136,-0.055 0.172,-0.184 0.207,-0.726 0.5,-1.09 0.871,-1.09 0.125,0 0.187,0.09 0.187,0.262 0,0.137 -0.055,0.328 -0.152,0.594 -0.344,0.914 -0.516,1.551 -0.516,1.887 0,0.699 0.434,1.109 1.129,1.109 0.391,0 0.742,-0.184 1.043,-0.555 0.125,0.371 0.399,0.555 0.813,0.555 0.625,0 0.816,-0.734 0.96,-1.406 z"
       style="fill:#000000;fill-opacity:1;fill-rule:nonzero;stroke:none"
       transform="scale(1.3333333)" />
    <path
       id="path34"
       d="m 21.211,119.684 c 0,0.39 0.406,0.582 1.223,0.582 0.421,0 0.82,-0.11 1.175,-0.317 0.399,-0.238 0.641,-0.554 0.743,-0.945 l 0.984,-3.988 c 0.019,-0.09 0.027,-0.145 0.027,-0.172 0,-0.184 -0.097,-0.274 -0.289,-0.274 -0.199,0 -0.324,0.11 -0.39,0.321 -0.2,-0.34 -0.469,-0.5 -0.805,-0.5 -0.578,0 -1.094,0.289 -1.539,0.871 -0.406,0.543 -0.613,1.117 -0.613,1.707 0,0.789 0.461,1.461 1.222,1.461 0.352,0 0.676,-0.153 0.977,-0.453 l -0.274,1.074 c -0.261,0.625 -0.668,0.941 -1.238,0.941 -0.234,0 -0.434,-0.015 -0.598,-0.054 0.192,-0.098 0.282,-0.254 0.282,-0.461 0,-0.227 -0.129,-0.348 -0.371,-0.348 -0.289,0 -0.516,0.266 -0.516,0.555 m 3.086,-4.84 c 0.18,0.191 0.269,0.371 0.269,0.554 0,0.008 -0.007,0.055 -0.027,0.118 l -0.426,1.714 c -0.051,0.211 -0.207,0.43 -0.449,0.629 -0.246,0.2 -0.48,0.301 -0.687,0.301 -0.364,0 -0.543,-0.265 -0.543,-0.793 0,-0.5 0.304,-1.605 0.488,-1.933 0.277,-0.52 0.598,-0.774 0.969,-0.774 0.16,0 0.297,0.067 0.406,0.184 z"
       style="fill:#000000;fill-opacity:1;fill-rule:nonzero;stroke:none"
       transform="scale(1.3333333)" />
    <path
       id="path35"
       d="m 38.523,111.762 h -7.91 c -0.203,0 -0.308,0.101 -0.308,0.297 0,0.191 0.105,0.293 0.308,0.293 h 7.91 c 0.204,0 0.309,-0.102 0.309,-0.293 0,-0.157 -0.141,-0.297 -0.309,-0.297 m 0,2.414 h -7.91 c -0.203,0 -0.308,0.105 -0.308,0.297 0,0.191 0.105,0.297 0.308,0.297 h 7.91 c 0.204,0 0.309,-0.106 0.309,-0.297 0,-0.168 -0.141,-0.297 -0.309,-0.297 z"
       style="fill:#000000;fill-opacity:1;fill-rule:nonzero;stroke:none"
       transform="scale(1.3333333)" />
    <path
       id="path36"
       d="m 47.352,116.426 c 1.398,0 2.703,-0.488 3.894,-1.453 1.188,-0.961 1.969,-2.145 2.316,-3.52 0.114,-0.476 0.18,-0.91 0.18,-1.285 0,-1.129 -0.601,-1.887 -1.82,-2.273 -0.535,-0.168 -1.305,-0.258 -2.305,-0.258 l 0.078,-0.282 -0.129,-0.089 -0.894,0.41 c -1.164,0.078 -2.137,0.437 -2.945,1.078 -0.512,0.414 -0.832,0.887 -0.973,1.441 -0.113,0.461 -0.063,0.871 0.332,0.871 0.141,0 0.285,-0.074 0.449,-0.218 0.168,-0.141 0.27,-0.41 0.309,-0.821 0.039,-0.5 0.203,-0.875 0.523,-1.117 0.629,-0.5 1.344,-0.758 2.164,-0.773 l -0.961,3.867 c -0.191,0.762 -0.371,1.391 -0.574,1.851 -0.207,0.465 -0.437,0.797 -0.707,1.004 -0.676,0.551 -1.379,0.832 -2.125,0.832 l -0.602,0.735 M 52.242,109 c 0.281,0.371 0.422,0.848 0.422,1.414 0,0.332 -0.051,0.691 -0.141,1.078 -0.371,1.504 -0.984,2.594 -1.843,3.278 -0.446,0.359 -0.895,0.601 -1.368,0.742 -0.398,0.117 -0.988,0.179 -1.792,0.179 h -1.497 l -0.015,-0.062 0.539,-0.449 c 0.398,-0.321 0.73,-0.707 1.023,-1.145 0.5,-0.746 0.899,-1.734 1.203,-2.953 l 0.719,-2.945 c 1.406,0.015 2.328,0.297 2.75,0.863 z"
       style="fill:#000000;fill-opacity:1;fill-rule:nonzero;stroke:none"
       transform="scale(1.3333333)" />
    <path
       id="path37"
       d="m 57.66,114.598 c 0,-0.082 -0.09,-0.125 -0.277,-0.125 H 56.648 C 56.883,113.527 57,113.035 57,113 c 0,-0.191 -0.098,-0.281 -0.289,-0.281 -0.207,0 -0.336,0.117 -0.391,0.351 l -0.332,1.403 h -0.804 c -0.2,0 -0.301,0.007 -0.301,0.199 0,0.098 0.09,0.144 0.281,0.144 h 0.734 c -0.445,1.77 -0.664,2.707 -0.664,2.825 0,0.507 0.344,0.863 0.852,0.863 0.344,0 0.644,-0.156 0.906,-0.473 0.215,-0.261 0.371,-0.515 0.469,-0.761 0.039,-0.102 0.055,-0.157 0.055,-0.184 0,-0.082 -0.043,-0.125 -0.133,-0.125 -0.074,0 -0.129,0.043 -0.164,0.144 -0.309,0.754 -0.68,1.125 -1.121,1.125 -0.157,0 -0.239,-0.125 -0.239,-0.371 0,-0.136 0.02,-0.281 0.055,-0.425 l 0.645,-2.618 h 0.804 c 0.235,0 0.297,-0.019 0.297,-0.218 z"
       style="fill:#000000;fill-opacity:1;fill-rule:nonzero;stroke:none"
       transform="scale(1.3333333)" />
    <path
       id="path38"
       d="m 61.887,115.008 c 0,-0.383 -0.371,-0.617 -0.77,-0.617 -0.441,0 -0.812,0.207 -1.121,0.632 -0.09,-0.351 -0.398,-0.632 -0.824,-0.632 -0.371,0 -0.641,0.289 -0.832,0.879 -0.09,0.3 -0.137,0.472 -0.137,0.527 0,0.082 0.047,0.129 0.145,0.129 0.047,0 0.074,-0.012 0.101,-0.028 0.043,-0.082 0.071,-0.148 0.082,-0.21 0.16,-0.692 0.371,-1.036 0.614,-1.036 0.156,0 0.238,0.129 0.238,0.383 0,0.117 -0.047,0.363 -0.137,0.735 l -0.516,2.062 c -0.027,0.117 -0.082,0.356 -0.082,0.398 0,0.184 0.098,0.274 0.29,0.274 0.179,0 0.296,-0.09 0.363,-0.274 l 0.172,-0.652 c 0.097,-0.39 0.16,-0.644 0.187,-0.766 l 0.281,-1.16 c 0.02,-0.074 0.09,-0.191 0.207,-0.363 0.247,-0.348 0.528,-0.637 0.969,-0.637 0.11,0 0.199,0.02 0.281,0.063 -0.269,0.082 -0.406,0.254 -0.406,0.5 0,0.238 0.125,0.355 0.371,0.355 0.297,0 0.524,-0.265 0.524,-0.562 z"
       style="fill:#000000;fill-opacity:1;fill-rule:nonzero;stroke:none"
       transform="scale(1.3333333)" />
    <path
       id="path39"
       d="m 66.531,117.098 c 0,-0.082 -0.047,-0.129 -0.144,-0.129 -0.075,0 -0.129,0.062 -0.157,0.191 -0.179,0.719 -0.398,1.082 -0.64,1.082 -0.156,0 -0.235,-0.129 -0.235,-0.383 0,-0.117 0.036,-0.336 0.118,-0.656 l 0.515,-2.043 c 0.043,-0.172 0.063,-0.269 0.063,-0.316 0,-0.184 -0.102,-0.274 -0.301,-0.274 -0.188,0 -0.316,0.11 -0.379,0.321 -0.187,-0.34 -0.461,-0.5 -0.805,-0.5 -0.589,0 -1.105,0.297 -1.554,0.898 -0.418,0.563 -0.625,1.145 -0.625,1.754 0,0.789 0.461,1.461 1.218,1.461 0.391,0 0.77,-0.207 1.133,-0.625 0.098,0.344 0.407,0.625 0.832,0.625 0.625,0 0.817,-0.734 0.961,-1.406 m -1.422,-2.09 c 0.082,0.191 0.125,0.316 0.125,0.398 0,0.035 -0.007,0.082 -0.015,0.145 l -0.446,1.746 c -0.027,0.098 -0.089,0.207 -0.171,0.316 -0.332,0.418 -0.661,0.629 -0.977,0.629 -0.352,0 -0.535,-0.273 -0.535,-0.808 0,-0.219 0.055,-0.547 0.164,-0.985 0.191,-0.769 0.461,-1.289 0.797,-1.57 0.179,-0.152 0.351,-0.227 0.523,-0.227 0.246,0 0.426,0.118 0.535,0.356 z"
       style="fill:#000000;fill-opacity:1;fill-rule:nonzero;stroke:none"
       transform="scale(1.3333333)" />
    <path
       id="path40"
       d="m 69.383,112.762 c 0,-0.242 -0.121,-0.364 -0.363,-0.364 -0.254,0 -0.508,0.254 -0.508,0.512 0,0.242 0.129,0.363 0.371,0.363 0.254,0 0.5,-0.257 0.5,-0.511 m -0.227,4.39 c -0.199,0.715 -0.492,1.078 -0.863,1.078 -0.117,0 -0.18,-0.082 -0.18,-0.253 0,-0.153 0.262,-0.934 0.797,-2.352 0.074,-0.211 0.11,-0.371 0.11,-0.492 0,-0.445 -0.309,-0.77 -0.75,-0.77 -0.391,0 -0.7,0.227 -0.926,0.688 -0.18,0.375 -0.27,0.617 -0.27,0.738 0,0.082 0.043,0.117 0.145,0.117 0.117,0 0.136,-0.054 0.172,-0.183 0.207,-0.727 0.488,-1.09 0.851,-1.09 0.117,0 0.18,0.082 0.18,0.258 0,0.125 -0.027,0.269 -0.09,0.441 -0.211,0.574 -0.426,1.184 -0.605,1.664 -0.137,0.363 -0.211,0.609 -0.211,0.734 0,0.446 0.328,0.774 0.761,0.774 0.387,0 0.696,-0.227 0.922,-0.68 0.172,-0.355 0.262,-0.601 0.262,-0.738 0,-0.082 -0.043,-0.125 -0.145,-0.125 -0.027,0 -0.16,0.082 -0.16,0.191 z"
       style="fill:#000000;fill-opacity:1;fill-rule:nonzero;stroke:none"
       transform="scale(1.3333333)" />
    <path
       id="path41"
       d="m 74.793,117.16 c -0.207,0.719 -0.508,1.082 -0.879,1.082 -0.117,0 -0.18,-0.094 -0.18,-0.265 0,-0.125 0.055,-0.336 0.164,-0.618 0.36,-0.988 0.543,-1.644 0.543,-1.98 0,-0.637 -0.425,-0.988 -1.058,-0.988 -0.535,0 -0.996,0.234 -1.367,0.714 -0.075,-0.398 -0.391,-0.714 -0.852,-0.714 -0.508,0 -0.707,0.472 -0.832,0.879 -0.09,0.292 -0.137,0.464 -0.137,0.527 0,0.082 0.047,0.129 0.145,0.129 0.047,0 0.074,-0.012 0.101,-0.028 0.043,-0.082 0.071,-0.148 0.079,-0.21 0.164,-0.692 0.371,-1.036 0.617,-1.036 0.164,0 0.246,0.129 0.246,0.383 0,0.117 -0.047,0.363 -0.149,0.735 l -0.515,2.062 c -0.028,0.117 -0.078,0.356 -0.078,0.398 0,0.184 0.097,0.274 0.297,0.274 0.171,0 0.296,-0.09 0.363,-0.274 0.015,-0.042 0.07,-0.273 0.172,-0.664 l 0.187,-0.804 0.274,-1.039 c 0.097,-0.207 0.254,-0.418 0.441,-0.633 0.266,-0.293 0.59,-0.438 0.98,-0.438 0.297,0 0.442,0.2 0.442,0.59 0,0.348 -0.192,1.035 -0.578,2.07 -0.063,0.165 -0.09,0.301 -0.09,0.418 0,0.446 0.332,0.774 0.769,0.774 0.395,0 0.715,-0.227 0.938,-0.68 0.176,-0.363 0.266,-0.609 0.266,-0.726 0,-0.082 -0.047,-0.129 -0.145,-0.129 -0.027,0 -0.164,0.082 -0.164,0.191 z"
       style="fill:#000000;fill-opacity:1;fill-rule:nonzero;stroke:none"
       transform="scale(1.3333333)" />
    <path
       id="path42"
       d="m 11.52,95.785 c 1.394,0 2.699,-0.488 3.89,-1.449 1.192,-0.965 1.973,-2.148 2.317,-3.524 0.117,-0.472 0.179,-0.91 0.179,-1.281 0,-1.133 -0.601,-1.89 -1.816,-2.277 C 15.551,87.09 14.785,87 13.785,87 l 0.078,-0.285 -0.129,-0.09 -0.894,0.41 c -1.168,0.078 -2.141,0.438 -2.945,1.082 -0.512,0.41 -0.833,0.887 -0.973,1.438 -0.117,0.465 -0.067,0.875 0.332,0.875 0.141,0 0.281,-0.078 0.449,-0.219 0.164,-0.141 0.27,-0.41 0.305,-0.824 0.039,-0.5 0.207,-0.871 0.527,-1.117 0.625,-0.5 1.344,-0.758 2.16,-0.77 l -0.957,3.867 c -0.191,0.758 -0.371,1.387 -0.578,1.848 -0.203,0.465 -0.433,0.797 -0.703,1.004 -0.68,0.551 -1.383,0.836 -2.125,0.836 l -0.602,0.73 m 8.68,-7.426 c 0.281,0.375 0.422,0.848 0.422,1.414 0,0.336 -0.051,0.696 -0.141,1.079 -0.371,1.503 -0.984,2.597 -1.843,3.277 -0.45,0.359 -0.895,0.605 -1.371,0.746 -0.395,0.113 -0.985,0.18 -1.789,0.18 h -1.5 l -0.012,-0.067 0.539,-0.449 c 0.394,-0.32 0.726,-0.707 1.023,-1.141 0.5,-0.746 0.895,-1.738 1.203,-2.957 L 13.656,87.5 c 1.41,0.012 2.332,0.297 2.754,0.859 z"
       style="fill:#000000;fill-opacity:1;fill-rule:nonzero;stroke:none"
       transform="scale(1.3333333)" />
    <path
       id="path43"
       d="m 21.828,93.957 c 0,-0.078 -0.09,-0.125 -0.281,-0.125 h -0.735 c 0.239,-0.945 0.356,-1.434 0.356,-1.473 0,-0.191 -0.102,-0.281 -0.289,-0.281 -0.211,0 -0.336,0.117 -0.391,0.356 l -0.336,1.398 h -0.804 c -0.2,0 -0.297,0.008 -0.297,0.199 0,0.102 0.09,0.145 0.277,0.145 h 0.734 c -0.441,1.773 -0.66,2.707 -0.66,2.824 0,0.512 0.344,0.863 0.852,0.863 0.344,0 0.641,-0.152 0.902,-0.472 0.219,-0.262 0.371,-0.516 0.473,-0.762 0.035,-0.098 0.055,-0.152 0.055,-0.18 0,-0.082 -0.047,-0.129 -0.137,-0.129 -0.07,0 -0.125,0.047 -0.164,0.145 -0.305,0.754 -0.676,1.129 -1.121,1.129 -0.153,0 -0.235,-0.129 -0.235,-0.375 0,-0.137 0.016,-0.281 0.055,-0.426 l 0.641,-2.617 h 0.804 c 0.239,0 0.301,-0.016 0.301,-0.219 z"
       style="fill:#000000;fill-opacity:1;fill-rule:nonzero;stroke:none"
       transform="scale(1.3333333)" />
    <path
       id="path44"
       d="m 26.055,94.367 c 0,-0.383 -0.371,-0.617 -0.77,-0.617 -0.445,0 -0.816,0.207 -1.121,0.637 -0.094,-0.356 -0.398,-0.637 -0.824,-0.637 -0.371,0 -0.645,0.289 -0.832,0.883 -0.094,0.297 -0.137,0.469 -0.137,0.523 0,0.082 0.043,0.129 0.145,0.129 0.046,0 0.074,-0.008 0.097,-0.027 0.047,-0.082 0.075,-0.145 0.082,-0.207 0.164,-0.692 0.371,-1.039 0.617,-1.039 0.153,0 0.235,0.129 0.235,0.383 0,0.117 -0.047,0.363 -0.137,0.734 l -0.515,2.062 c -0.028,0.121 -0.083,0.356 -0.083,0.403 0,0.179 0.102,0.269 0.293,0.269 0.18,0 0.297,-0.09 0.36,-0.269 l 0.172,-0.656 c 0.101,-0.391 0.164,-0.645 0.191,-0.762 l 0.281,-1.164 c 0.016,-0.071 0.09,-0.192 0.207,-0.364 0.246,-0.343 0.524,-0.636 0.969,-0.636 0.11,0 0.199,0.019 0.281,0.066 -0.273,0.082 -0.41,0.254 -0.41,0.5 0,0.234 0.129,0.352 0.371,0.352 0.301,0 0.528,-0.262 0.528,-0.563 z"
       style="fill:#000000;fill-opacity:1;fill-rule:nonzero;stroke:none"
       transform="scale(1.3333333)" />
    <path
       id="path45"
       d="m 30.695,96.457 c 0,-0.082 -0.043,-0.129 -0.144,-0.129 -0.071,0 -0.125,0.067 -0.153,0.192 -0.179,0.718 -0.398,1.082 -0.644,1.082 -0.152,0 -0.234,-0.129 -0.234,-0.383 0,-0.117 0.035,-0.336 0.117,-0.653 l 0.515,-2.043 c 0.047,-0.175 0.067,-0.273 0.067,-0.32 0,-0.18 -0.102,-0.273 -0.301,-0.273 -0.191,0 -0.316,0.109 -0.379,0.32 -0.191,-0.336 -0.461,-0.5 -0.805,-0.5 -0.589,0 -1.105,0.301 -1.558,0.898 -0.414,0.563 -0.625,1.145 -0.625,1.754 0,0.789 0.461,1.461 1.222,1.461 0.391,0 0.77,-0.207 1.133,-0.625 0.098,0.344 0.406,0.625 0.832,0.625 0.625,0 0.813,-0.734 0.957,-1.406 m -1.418,-2.09 c 0.078,0.192 0.125,0.317 0.125,0.399 0,0.039 -0.007,0.082 -0.019,0.148 l -0.442,1.742 c -0.027,0.102 -0.089,0.211 -0.171,0.317 -0.336,0.418 -0.661,0.629 -0.977,0.629 -0.355,0 -0.535,-0.274 -0.535,-0.809 0,-0.219 0.054,-0.547 0.164,-0.981 0.187,-0.773 0.461,-1.289 0.797,-1.57 0.179,-0.156 0.351,-0.23 0.523,-0.23 0.242,0 0.426,0.121 0.535,0.355 z"
       style="fill:#000000;fill-opacity:1;fill-rule:nonzero;stroke:none"
       transform="scale(1.3333333)" />
    <path
       id="path46"
       d="m 33.547,92.125 c 0,-0.246 -0.117,-0.363 -0.363,-0.363 -0.25,0 -0.504,0.254 -0.504,0.508 0,0.246 0.125,0.363 0.371,0.363 0.254,0 0.496,-0.254 0.496,-0.508 m -0.227,4.387 c -0.199,0.718 -0.488,1.082 -0.859,1.082 -0.117,0 -0.18,-0.082 -0.18,-0.258 0,-0.152 0.262,-0.934 0.797,-2.352 0.07,-0.207 0.106,-0.371 0.106,-0.488 0,-0.445 -0.305,-0.773 -0.75,-0.773 -0.391,0 -0.696,0.226 -0.922,0.691 -0.184,0.371 -0.274,0.617 -0.274,0.734 0,0.082 0.047,0.118 0.145,0.118 0.117,0 0.137,-0.055 0.172,-0.18 0.211,-0.727 0.488,-1.09 0.851,-1.09 0.117,0 0.184,0.082 0.184,0.254 0,0.125 -0.028,0.273 -0.094,0.445 -0.207,0.571 -0.426,1.18 -0.605,1.66 -0.137,0.364 -0.207,0.61 -0.207,0.739 0,0.445 0.324,0.769 0.757,0.769 0.391,0 0.7,-0.226 0.926,-0.679 0.172,-0.356 0.262,-0.602 0.262,-0.735 0,-0.082 -0.047,-0.129 -0.145,-0.129 -0.027,0 -0.164,0.082 -0.164,0.192 z"
       style="fill:#000000;fill-opacity:1;fill-rule:nonzero;stroke:none"
       transform="scale(1.3333333)" />
    <path
       id="path47"
       d="m 38.957,96.52 c -0.207,0.718 -0.504,1.082 -0.875,1.082 -0.117,0 -0.184,-0.09 -0.184,-0.266 0,-0.125 0.055,-0.336 0.164,-0.617 0.364,-0.989 0.543,-1.645 0.543,-1.981 0,-0.633 -0.425,-0.988 -1.058,-0.988 -0.535,0 -0.996,0.234 -1.367,0.719 -0.071,-0.403 -0.387,-0.719 -0.852,-0.719 -0.504,0 -0.703,0.473 -0.832,0.883 -0.09,0.289 -0.133,0.461 -0.133,0.523 0,0.082 0.043,0.129 0.145,0.129 0.043,0 0.07,-0.008 0.097,-0.027 0.047,-0.082 0.075,-0.145 0.083,-0.207 0.164,-0.692 0.371,-1.039 0.617,-1.039 0.16,0 0.242,0.129 0.242,0.383 0,0.117 -0.047,0.363 -0.145,0.734 l -0.515,2.062 c -0.028,0.121 -0.082,0.356 -0.082,0.403 0,0.179 0.101,0.269 0.3,0.269 0.172,0 0.297,-0.09 0.36,-0.269 0.019,-0.047 0.074,-0.274 0.172,-0.664 l 0.191,-0.809 0.27,-1.035 c 0.101,-0.211 0.254,-0.418 0.445,-0.637 0.262,-0.289 0.59,-0.437 0.977,-0.437 0.3,0 0.445,0.203 0.445,0.593 0,0.344 -0.192,1.036 -0.582,2.071 -0.063,0.164 -0.09,0.297 -0.09,0.418 0,0.445 0.336,0.769 0.769,0.769 0.399,0 0.715,-0.226 0.942,-0.679 0.172,-0.364 0.262,-0.61 0.262,-0.727 0,-0.082 -0.043,-0.129 -0.145,-0.129 -0.027,0 -0.164,0.082 -0.164,0.192 z"
       style="fill:#000000;fill-opacity:1;fill-rule:nonzero;stroke:none"
       transform="scale(1.3333333)" />
    <path
       id="path48"
       d="m 83.125,116.734 c 0.883,0 1.68,-0.246 2.355,-0.746 0.758,-0.55 1.141,-1.258 1.141,-2.121 v -4.844 c 0,-0.203 -0.101,-0.308 -0.309,-0.308 -0.191,0 -0.292,0.105 -0.292,0.308 v 4.844 c 0,0.695 -0.321,1.262 -0.961,1.684 -0.575,0.387 -1.215,0.578 -1.934,0.578 -0.715,0 -1.355,-0.191 -1.934,-0.578 -0.636,-0.422 -0.957,-0.989 -0.957,-1.684 v -4.844 c 0,-0.203 -0.105,-0.308 -0.296,-0.308 -0.204,0 -0.305,0.105 -0.305,0.308 v 4.844 c 0,0.863 0.383,1.571 1.137,2.121 0.679,0.5 1.472,0.746 2.355,0.746 z"
       style="fill:#000000;fill-opacity:1;fill-rule:nonzero;stroke:none"
       transform="scale(1.3333333)" />
    <path
       id="path49"
       d="m 94.484,116.426 c 1.395,0 2.7,-0.488 3.891,-1.453 1.187,-0.961 1.969,-2.145 2.316,-3.52 0.114,-0.476 0.18,-0.91 0.18,-1.285 0,-1.129 -0.601,-1.887 -1.82,-2.273 -0.535,-0.168 -1.305,-0.258 -2.301,-0.258 l 0.074,-0.282 -0.129,-0.089 -0.894,0.41 c -1.164,0.078 -2.137,0.437 -2.946,1.078 -0.511,0.414 -0.832,0.887 -0.972,1.441 -0.113,0.461 -0.063,0.871 0.336,0.871 0.14,0 0.281,-0.074 0.445,-0.218 0.168,-0.141 0.27,-0.41 0.309,-0.821 0.039,-0.5 0.203,-0.875 0.523,-1.117 0.629,-0.5 1.344,-0.758 2.164,-0.773 l -0.961,3.867 c -0.191,0.762 -0.371,1.391 -0.574,1.851 -0.207,0.465 -0.437,0.797 -0.703,1.004 -0.68,0.551 -1.383,0.832 -2.125,0.832 l -0.602,0.735 M 99.371,109 c 0.281,0.371 0.422,0.848 0.422,1.414 0,0.332 -0.051,0.691 -0.141,1.078 -0.371,1.504 -0.984,2.594 -1.843,3.278 -0.446,0.359 -0.895,0.601 -1.368,0.742 -0.398,0.117 -0.984,0.179 -1.793,0.179 h -1.496 l -0.015,-0.062 0.539,-0.449 c 0.398,-0.321 0.73,-0.707 1.023,-1.145 0.5,-0.746 0.899,-1.734 1.203,-2.953 l 0.719,-2.945 c 1.406,0.015 2.328,0.297 2.75,0.863 z"
       style="fill:#000000;fill-opacity:1;fill-rule:nonzero;stroke:none"
       transform="scale(1.3333333)" />
    <path
       id="path50"
       d="m 101.941,119.684 c 0,0.39 0.407,0.582 1.219,0.582 0.426,0 0.824,-0.11 1.18,-0.317 0.398,-0.238 0.64,-0.554 0.742,-0.945 l 0.984,-3.988 c 0.02,-0.09 0.028,-0.145 0.028,-0.172 0,-0.184 -0.098,-0.274 -0.289,-0.274 -0.2,0 -0.328,0.11 -0.391,0.321 -0.199,-0.34 -0.469,-0.5 -0.805,-0.5 -0.578,0 -1.093,0.289 -1.539,0.871 -0.406,0.543 -0.613,1.117 -0.613,1.707 0,0.789 0.461,1.461 1.219,1.461 0.355,0 0.679,-0.153 0.98,-0.453 l -0.273,1.074 c -0.262,0.625 -0.668,0.941 -1.238,0.941 -0.235,0 -0.434,-0.015 -0.598,-0.054 0.191,-0.098 0.281,-0.254 0.281,-0.461 0,-0.227 -0.129,-0.348 -0.371,-0.348 -0.289,0 -0.516,0.266 -0.516,0.555 m 3.086,-4.84 c 0.18,0.191 0.27,0.371 0.27,0.554 0,0.008 -0.008,0.055 -0.027,0.118 l -0.426,1.714 c -0.055,0.211 -0.207,0.43 -0.453,0.629 -0.243,0.2 -0.477,0.301 -0.688,0.301 -0.359,0 -0.543,-0.265 -0.543,-0.793 0,-0.5 0.309,-1.605 0.488,-1.933 0.282,-0.52 0.598,-0.774 0.969,-0.774 0.164,0 0.301,0.067 0.41,0.184 z"
       style="fill:#000000;fill-opacity:1;fill-rule:nonzero;stroke:none"
       transform="scale(1.3333333)" />
    <path
       id="path51"
       d="m 107.242,117.23 c 0,-0.214 0.047,-0.515 0.137,-0.886 h 0.445 c 0.586,0 1.039,-0.074 1.364,-0.211 0.3,-0.125 0.5,-0.309 0.597,-0.535 0.063,-0.157 0.09,-0.301 0.09,-0.418 0,-0.5 -0.469,-0.789 -0.977,-0.789 -0.351,0 -0.707,0.089 -1.058,0.269 -0.695,0.363 -1.301,1.192 -1.301,2.192 0,0.925 0.531,1.652 1.43,1.652 0.476,0 0.902,-0.117 1.273,-0.344 0.309,-0.191 0.535,-0.383 0.68,-0.574 0.062,-0.082 0.09,-0.145 0.09,-0.172 0,-0.102 -0.043,-0.156 -0.145,-0.156 -0.043,0 -0.09,0.039 -0.144,0.109 -0.297,0.403 -0.668,0.656 -1.094,0.766 -0.281,0.07 -0.488,0.109 -0.645,0.109 -0.515,0 -0.742,-0.492 -0.742,-1.012 m 2.274,-2.05 c 0,0.597 -0.582,0.898 -1.746,0.898 h -0.317 c 0.172,-0.598 0.422,-1 0.766,-1.187 0.273,-0.157 0.5,-0.239 0.679,-0.239 0.329,0 0.618,0.2 0.618,0.528 z"
       style="fill:#000000;fill-opacity:1;fill-rule:nonzero;stroke:none"
       transform="scale(1.3333333)" />
    <path
       id="path52"
       d="m 115.199,117.16 c -0.211,0.719 -0.508,1.082 -0.879,1.082 -0.117,0 -0.179,-0.094 -0.179,-0.265 0,-0.125 0.05,-0.336 0.16,-0.618 0.363,-0.988 0.543,-1.644 0.543,-1.98 0,-0.637 -0.426,-0.988 -1.059,-0.988 -0.531,0 -0.996,0.234 -1.367,0.714 -0.07,-0.398 -0.387,-0.714 -0.848,-0.714 -0.508,0 -0.707,0.472 -0.832,0.879 -0.093,0.292 -0.136,0.464 -0.136,0.527 0,0.082 0.043,0.129 0.144,0.129 0.043,0 0.07,-0.012 0.098,-0.028 0.047,-0.082 0.074,-0.148 0.082,-0.21 0.164,-0.692 0.371,-1.036 0.617,-1.036 0.16,0 0.242,0.129 0.242,0.383 0,0.117 -0.043,0.363 -0.144,0.735 l -0.516,2.062 c -0.027,0.117 -0.082,0.356 -0.082,0.398 0,0.184 0.102,0.274 0.301,0.274 0.172,0 0.297,-0.09 0.359,-0.274 0.02,-0.042 0.074,-0.273 0.172,-0.664 l 0.191,-0.804 0.274,-1.039 c 0.098,-0.207 0.25,-0.418 0.441,-0.633 0.262,-0.293 0.59,-0.438 0.977,-0.438 0.301,0 0.445,0.2 0.445,0.59 0,0.348 -0.191,1.035 -0.578,2.07 -0.066,0.165 -0.094,0.301 -0.094,0.418 0,0.446 0.336,0.774 0.77,0.774 0.398,0 0.715,-0.227 0.941,-0.68 0.172,-0.363 0.262,-0.609 0.262,-0.726 0,-0.082 -0.043,-0.129 -0.145,-0.129 -0.027,0 -0.16,0.082 -0.16,0.191 z"
       style="fill:#000000;fill-opacity:1;fill-rule:nonzero;stroke:none"
       transform="scale(1.3333333)" />
    <path
       id="path53"
       d="m 72.855,45.004 c 1.395,0 2.7,-0.488 3.891,-1.453 1.192,-0.965 1.973,-2.145 2.316,-3.52 0.118,-0.476 0.18,-0.914 0.18,-1.285 0,-1.133 -0.601,-1.891 -1.816,-2.273 -0.539,-0.168 -1.309,-0.258 -2.305,-0.258 l 0.074,-0.285 -0.125,-0.09 -0.898,0.414 c -1.164,0.074 -2.137,0.437 -2.942,1.078 -0.511,0.41 -0.832,0.887 -0.972,1.438 -0.117,0.464 -0.067,0.875 0.332,0.875 0.14,0 0.281,-0.079 0.449,-0.219 0.164,-0.141 0.266,-0.41 0.305,-0.821 0.039,-0.503 0.207,-0.875 0.523,-1.121 0.629,-0.5 1.348,-0.757 2.164,-0.769 l -0.957,3.867 c -0.195,0.758 -0.375,1.387 -0.578,1.852 -0.203,0.461 -0.434,0.796 -0.703,1 -0.68,0.554 -1.383,0.836 -2.125,0.836 l -0.602,0.734 m 8.68,-7.43 c 0.281,0.375 0.422,0.852 0.422,1.414 0,0.336 -0.051,0.696 -0.141,1.082 -0.371,1.5 -0.988,2.594 -1.843,3.274 -0.45,0.359 -0.899,0.605 -1.372,0.746 -0.394,0.117 -0.984,0.18 -1.792,0.18 h -1.497 l -0.011,-0.063 0.535,-0.453 c 0.398,-0.32 0.73,-0.703 1.027,-1.141 0.496,-0.746 0.895,-1.734 1.203,-2.957 l 0.715,-2.941 c 1.41,0.012 2.328,0.297 2.754,0.859 z"
       style="fill:#000000;fill-opacity:1;fill-rule:nonzero;stroke:none"
       transform="scale(1.3333333)" />
    <path
       id="path54"
       d="m 80.312,48.262 c 0,0.39 0.407,0.582 1.223,0.582 0.426,0 0.824,-0.11 1.176,-0.321 0.398,-0.234 0.641,-0.55 0.742,-0.941 l 0.985,-3.988 c 0.019,-0.094 0.027,-0.149 0.027,-0.172 0,-0.184 -0.098,-0.274 -0.289,-0.274 -0.199,0 -0.324,0.11 -0.387,0.317 -0.199,-0.336 -0.473,-0.5 -0.809,-0.5 -0.578,0 -1.093,0.293 -1.535,0.871 -0.41,0.547 -0.617,1.117 -0.617,1.711 0,0.789 0.461,1.461 1.223,1.461 0.351,0 0.679,-0.156 0.976,-0.453 l -0.273,1.07 c -0.262,0.629 -0.668,0.945 -1.238,0.945 -0.235,0 -0.434,-0.019 -0.598,-0.054 0.191,-0.102 0.281,-0.254 0.281,-0.465 0,-0.227 -0.125,-0.344 -0.371,-0.344 -0.289,0 -0.516,0.266 -0.516,0.555 m 3.086,-4.84 c 0.18,0.187 0.27,0.371 0.27,0.551 0,0.011 -0.008,0.054 -0.027,0.121 l -0.422,1.715 c -0.055,0.211 -0.211,0.425 -0.453,0.629 -0.246,0.199 -0.481,0.296 -0.688,0.296 -0.363,0 -0.543,-0.261 -0.543,-0.789 0,-0.5 0.305,-1.609 0.488,-1.933 0.282,-0.52 0.598,-0.774 0.969,-0.774 0.16,0 0.297,0.063 0.406,0.184 z"
       style="fill:#000000;fill-opacity:1;fill-rule:nonzero;stroke:none"
       transform="scale(1.3333333)" />
    <path
       id="path55"
       d="m 85.617,45.809 c 0,-0.219 0.043,-0.516 0.133,-0.891 h 0.445 c 0.586,0 1.039,-0.07 1.367,-0.207 0.297,-0.129 0.497,-0.309 0.598,-0.535 0.063,-0.156 0.09,-0.301 0.09,-0.418 0,-0.5 -0.473,-0.793 -0.977,-0.793 -0.355,0 -0.707,0.09 -1.062,0.273 -0.695,0.364 -1.301,1.192 -1.301,2.188 0,0.929 0.535,1.656 1.43,1.656 0.48,0 0.906,-0.121 1.277,-0.348 0.305,-0.191 0.531,-0.379 0.676,-0.57 0.066,-0.082 0.09,-0.144 0.09,-0.172 0,-0.101 -0.043,-0.156 -0.145,-0.156 -0.043,0 -0.09,0.035 -0.144,0.109 -0.297,0.399 -0.668,0.653 -1.094,0.762 -0.281,0.074 -0.488,0.109 -0.641,0.109 -0.519,0 -0.742,-0.488 -0.742,-1.007 m 2.27,-2.051 c 0,0.597 -0.578,0.898 -1.746,0.898 h -0.317 c 0.172,-0.601 0.426,-1 0.77,-1.191 0.269,-0.153 0.496,-0.235 0.679,-0.235 0.325,0 0.614,0.2 0.614,0.528 z"
       style="fill:#000000;fill-opacity:1;fill-rule:nonzero;stroke:none"
       transform="scale(1.3333333)" />
    <path
       id="path56"
       d="m 93.57,45.734 c -0.207,0.719 -0.508,1.082 -0.879,1.082 -0.117,0 -0.179,-0.089 -0.179,-0.261 0,-0.129 0.054,-0.336 0.164,-0.617 0.359,-0.993 0.543,-1.645 0.543,-1.981 0,-0.637 -0.426,-0.992 -1.059,-0.992 -0.535,0 -0.996,0.238 -1.367,0.719 -0.074,-0.399 -0.391,-0.719 -0.852,-0.719 -0.507,0 -0.707,0.473 -0.832,0.883 -0.089,0.289 -0.136,0.461 -0.136,0.527 0,0.082 0.047,0.125 0.144,0.125 0.047,0 0.074,-0.008 0.102,-0.027 0.043,-0.082 0.07,-0.145 0.078,-0.207 0.164,-0.692 0.371,-1.036 0.617,-1.036 0.164,0 0.246,0.125 0.246,0.379 0,0.121 -0.047,0.364 -0.148,0.739 l -0.516,2.062 c -0.027,0.117 -0.078,0.352 -0.078,0.399 0,0.179 0.098,0.273 0.297,0.273 0.172,0 0.297,-0.094 0.363,-0.273 0.016,-0.047 0.07,-0.274 0.172,-0.664 l 0.188,-0.809 0.273,-1.035 c 0.098,-0.207 0.254,-0.418 0.441,-0.637 0.266,-0.289 0.59,-0.434 0.981,-0.434 0.297,0 0.441,0.2 0.441,0.59 0,0.344 -0.191,1.035 -0.578,2.071 -0.062,0.164 -0.09,0.3 -0.09,0.418 0,0.445 0.332,0.773 0.77,0.773 0.398,0 0.715,-0.23 0.941,-0.684 0.172,-0.363 0.262,-0.609 0.262,-0.726 0,-0.082 -0.047,-0.125 -0.145,-0.125 -0.027,0 -0.164,0.082 -0.164,0.187 z"
       style="fill:#000000;fill-opacity:1;fill-rule:nonzero;stroke:none"
       transform="scale(1.3333333)" />
    <path
       id="path57"
       d="m 119.406,57.07 c 0,-0.59 -0.574,-0.882 -1.215,-0.882 -0.55,0 -0.988,0.292 -1.32,0.882 -0.269,-0.59 -0.715,-0.882 -1.367,-0.882 -0.629,0 -1.141,0.292 -1.551,0.871 -0.344,0.5 -0.523,0.875 -0.523,1.117 0,0.117 0.062,0.179 0.191,0.179 0.113,0 0.191,-0.062 0.219,-0.179 0.242,-0.742 0.777,-1.617 1.637,-1.617 0.421,0 0.628,0.269 0.628,0.796 0,0.27 -0.23,1.27 -0.679,2.993 -0.219,0.863 -0.602,1.285 -1.153,1.285 -0.179,0 -0.343,-0.039 -0.488,-0.102 0.336,-0.129 0.5,-0.359 0.5,-0.695 0,-0.332 -0.164,-0.5 -0.512,-0.5 -0.421,0 -0.742,0.359 -0.742,0.785 0,0.59 0.602,0.883 1.231,0.883 0.535,0 0.972,-0.293 1.316,-0.883 0.246,0.59 0.703,0.883 1.371,0.883 0.613,0 1.125,-0.293 1.535,-0.871 0.348,-0.5 0.524,-0.875 0.524,-1.117 0,-0.118 -0.063,-0.18 -0.192,-0.18 -0.113,0 -0.179,0.062 -0.214,0.18 -0.219,0.73 -0.797,1.617 -1.629,1.617 -0.422,0 -0.637,-0.258 -0.637,-0.785 0,-0.164 0.062,-0.524 0.203,-1.102 l 0.434,-1.734 c 0.246,-0.965 0.64,-1.453 1.203,-1.453 0.179,0 0.347,0.039 0.488,0.101 -0.344,0.117 -0.512,0.348 -0.512,0.695 0,0.333 0.18,0.5 0.524,0.5 0.41,0 0.73,-0.371 0.73,-0.785 z"
       style="fill:#000000;fill-opacity:1;fill-rule:nonzero;stroke:none"
       transform="scale(1.3333333)" />
    <path
       id="path58"
       d="m 128.438,60.027 c 0.988,-0.297 1.5,-1.183 1.535,-2.66 0,-0.14 -0.063,-0.203 -0.203,-0.203 -0.129,0 -0.192,0.063 -0.204,0.191 -0.015,0.551 -0.128,0.977 -0.359,1.286 -0.258,0.347 -0.832,0.73 -1.395,0.73 -0.386,0 -0.796,-0.168 -1.218,-0.5 -0.242,-0.191 -0.446,-0.359 -0.602,-0.488 -0.906,-0.797 -1.687,-1.195 -2.355,-1.195 -0.192,0 -0.383,0.027 -0.575,0.089 -1.089,0.321 -1.511,1.223 -1.55,2.661 0,0.14 0.066,0.207 0.207,0.207 0.129,0 0.191,-0.067 0.203,-0.196 0.016,-0.551 0.129,-0.976 0.359,-1.285 0.242,-0.332 0.844,-0.73 1.395,-0.73 0.386,0 0.793,0.168 1.219,0.5 0.242,0.191 0.445,0.359 0.601,0.488 0.906,0.797 1.688,1.195 2.352,1.195 0.195,0 0.398,-0.027 0.59,-0.09 z"
       style="fill:#000000;fill-opacity:1;fill-rule:nonzero;stroke:none"
       transform="scale(1.3333333)" />
    <path
       id="path59"
       d="m 134.383,61.812 c 1.398,0 2.703,-0.488 3.894,-1.453 1.188,-0.961 1.969,-2.144 2.317,-3.519 0.113,-0.473 0.179,-0.91 0.179,-1.285 0,-1.129 -0.605,-1.887 -1.82,-2.274 -0.535,-0.168 -1.305,-0.258 -2.305,-0.258 l 0.079,-0.281 -0.129,-0.09 -0.895,0.41 c -1.164,0.079 -2.137,0.438 -2.945,1.083 -0.512,0.41 -0.832,0.886 -0.973,1.437 -0.113,0.461 -0.062,0.875 0.332,0.875 0.141,0 0.281,-0.078 0.449,-0.219 0.168,-0.14 0.27,-0.414 0.309,-0.824 0.039,-0.5 0.203,-0.871 0.523,-1.117 0.629,-0.5 1.344,-0.758 2.164,-0.77 l -0.96,3.868 c -0.192,0.757 -0.372,1.386 -0.575,1.847 -0.207,0.465 -0.437,0.797 -0.707,1.004 -0.675,0.551 -1.382,0.836 -2.125,0.836 l -0.601,0.73 m 8.679,-7.425 c 0.282,0.371 0.422,0.847 0.422,1.414 0,0.332 -0.05,0.691 -0.14,1.078 -0.371,1.504 -0.985,2.598 -1.844,3.277 -0.445,0.36 -0.895,0.602 -1.367,0.746 -0.399,0.114 -0.989,0.18 -1.793,0.18 h -1.496 l -0.016,-0.066 0.539,-0.45 c 0.395,-0.32 0.731,-0.707 1.024,-1.144 0.5,-0.742 0.894,-1.734 1.203,-2.953 l 0.718,-2.942 c 1.407,0.012 2.329,0.293 2.75,0.86 z"
       style="fill:#000000;fill-opacity:1;fill-rule:nonzero;stroke:none"
       transform="scale(1.3333333)" />
    <path
       id="path60"
       d="m 146.211,62.484 c 0,-0.082 -0.043,-0.129 -0.145,-0.129 -0.07,0 -0.125,0.067 -0.152,0.192 -0.18,0.719 -0.398,1.082 -0.641,1.082 -0.156,0 -0.238,-0.129 -0.238,-0.383 0,-0.117 0.039,-0.336 0.117,-0.652 l 0.516,-2.043 c 0.047,-0.176 0.066,-0.274 0.066,-0.321 0,-0.179 -0.101,-0.273 -0.3,-0.273 -0.188,0 -0.317,0.109 -0.379,0.32 -0.192,-0.336 -0.461,-0.5 -0.805,-0.5 -0.59,0 -1.105,0.301 -1.559,0.899 -0.414,0.562 -0.625,1.144 -0.625,1.754 0,0.789 0.465,1.461 1.223,1.461 0.391,0 0.77,-0.207 1.133,-0.625 0.098,0.343 0.406,0.625 0.832,0.625 0.625,0 0.812,-0.735 0.957,-1.407 m -1.418,-2.089 c 0.082,0.191 0.125,0.316 0.125,0.398 0,0.039 -0.008,0.082 -0.016,0.145 l -0.445,1.746 c -0.027,0.101 -0.09,0.207 -0.172,0.316 -0.336,0.418 -0.66,0.629 -0.976,0.629 -0.356,0 -0.536,-0.274 -0.536,-0.809 0,-0.218 0.055,-0.547 0.165,-0.98 0.187,-0.774 0.46,-1.289 0.796,-1.574 0.18,-0.153 0.352,-0.227 0.524,-0.227 0.246,0 0.426,0.121 0.535,0.356 z"
       style="fill:#000000;fill-opacity:1;fill-rule:nonzero;stroke:none"
       transform="scale(1.3333333)" />
    <path
       id="path61"
       d="m 151.406,62.484 c 0,-0.082 -0.043,-0.129 -0.144,-0.129 -0.082,0 -0.125,0.067 -0.153,0.192 -0.047,0.172 -0.089,0.344 -0.156,0.519 -0.117,0.372 -0.277,0.563 -0.476,0.563 -0.165,0 -0.247,-0.129 -0.247,-0.383 0,-0.152 0.063,-0.461 0.18,-0.918 l 0.246,-0.961 c 0.082,-0.328 0.153,-0.555 0.207,-0.836 l 0.055,-0.246 c 0.02,-0.062 0.027,-0.109 0.027,-0.137 0,-0.179 -0.097,-0.273 -0.297,-0.273 -0.199,0 -0.328,0.109 -0.382,0.336 l -0.668,2.691 c -0.008,0.028 -0.047,0.09 -0.118,0.2 -0.144,0.234 -0.5,0.527 -0.859,0.527 -0.344,0 -0.516,-0.238 -0.516,-0.699 0,-0.375 0.161,-0.973 0.477,-1.809 0.102,-0.273 0.156,-0.465 0.156,-0.57 0,-0.457 -0.316,-0.774 -0.769,-0.774 -0.407,0 -0.723,0.227 -0.949,0.68 -0.172,0.355 -0.266,0.602 -0.266,0.727 0,0.082 0.047,0.128 0.148,0.128 0.118,0 0.133,-0.054 0.172,-0.183 0.207,-0.727 0.496,-1.09 0.867,-1.09 0.125,0 0.192,0.094 0.192,0.266 0,0.136 -0.055,0.324 -0.156,0.59 -0.344,0.917 -0.516,1.55 -0.516,1.89 0,0.699 0.434,1.106 1.133,1.106 0.386,0 0.742,-0.18 1.039,-0.555 0.129,0.375 0.398,0.555 0.816,0.555 0.625,0 0.813,-0.735 0.957,-1.407 z"
       style="fill:#000000;fill-opacity:1;fill-rule:nonzero;stroke:none"
       transform="scale(1.3333333)" />
    <path
       id="path62"
       d="m 151.805,65.074 c 0,0.391 0.406,0.578 1.222,0.578 0.426,0 0.825,-0.109 1.176,-0.316 0.399,-0.238 0.645,-0.555 0.742,-0.945 l 0.989,-3.989 c 0.015,-0.09 0.027,-0.144 0.027,-0.172 0,-0.179 -0.102,-0.273 -0.293,-0.273 -0.199,0 -0.324,0.109 -0.387,0.32 -0.199,-0.336 -0.472,-0.5 -0.804,-0.5 -0.582,0 -1.098,0.289 -1.539,0.871 -0.407,0.547 -0.618,1.118 -0.618,1.707 0,0.793 0.461,1.465 1.223,1.465 0.352,0 0.68,-0.156 0.977,-0.457 l -0.27,1.075 c -0.262,0.624 -0.672,0.945 -1.242,0.945 -0.235,0 -0.434,-0.02 -0.598,-0.055 0.192,-0.101 0.281,-0.254 0.281,-0.465 0,-0.226 -0.125,-0.343 -0.371,-0.343 -0.289,0 -0.515,0.261 -0.515,0.554 m 3.086,-4.844 c 0.183,0.192 0.273,0.372 0.273,0.555 0,0.008 -0.012,0.055 -0.027,0.117 l -0.426,1.719 c -0.055,0.207 -0.207,0.426 -0.453,0.625 -0.246,0.199 -0.481,0.301 -0.688,0.301 -0.363,0 -0.543,-0.266 -0.543,-0.789 0,-0.5 0.309,-1.61 0.489,-1.938 0.281,-0.515 0.597,-0.769 0.968,-0.769 0.164,0 0.297,0.062 0.407,0.179 z"
       style="fill:#000000;fill-opacity:1;fill-rule:nonzero;stroke:none"
       transform="scale(1.3333333)" />
    <path
       id="path63"
       d="m 575.543,60.664 c 0.191,0 0.344,0.156 0.344,0.348 v 2.07 c 0,0.191 -0.153,0.348 -0.344,0.348 -0.191,0 -0.344,-0.157 -0.344,-0.348 v -2.07 c 0,-0.192 0.153,-0.348 0.344,-0.348 z"
       style="fill:#ececec;fill-opacity:1;fill-rule:nonzero;stroke:none"
       transform="scale(1.3333333)" />
    <path
       id="path64"
       d="m 575.543,60.664 c 0.191,0 0.344,0.156 0.344,0.348 v 2.07 c 0,0.191 -0.153,0.348 -0.344,0.348 -0.191,0 -0.344,-0.157 -0.344,-0.348 v -2.07 c 0,-0.192 0.153,-0.348 0.344,-0.348 z"
       style="fill:#ececec;fill-opacity:1;fill-rule:nonzero;stroke:none"
       transform="scale(1.3333333)" />
    <path
       id="path65"
       d="M 471.723,70.215 H 674.802"
       style="fill:none;stroke:#000000;stroke-width:2.12605;stroke-linecap:butt;stroke-linejoin:miter;stroke-miterlimit:4;stroke-dasharray:none;stroke-opacity:1"
       transform="scale(1.3284067,1.3333333)" />
    <path
       id="path66"
       d="m 680.934,70.215 -9.194,5.316 V 64.902 Z"
       style="fill:#000000;fill-opacity:1;fill-rule:evenodd;stroke:#000000;stroke-width:1.41737;stroke-linecap:butt;stroke-linejoin:miter;stroke-miterlimit:4;stroke-dasharray:none;stroke-opacity:1"
       transform="scale(1.3284067,1.3333333)" />
    <path
       id="path67"
       d="m 380.362,32.098 h 91.361 v 68.293 h -91.361 z"
       style="fill:none;stroke:#000000;stroke-width:0.689055;stroke-linecap:butt;stroke-linejoin:miter;stroke-miterlimit:4;stroke-dasharray:none;stroke-opacity:1"
       transform="scale(1.3284067,1.3333333)" />
    <path
       id="path68"
       d="m 554.439,34.613 59.043,16.239 0.16,39.554 -59.203,14.36 z"
       style="fill:#d7e3f4;fill-opacity:1;fill-rule:nonzero;stroke:#3771c8;stroke-width:0.876296;stroke-linecap:butt;stroke-linejoin:miter;stroke-miterlimit:4;stroke-dasharray:none;stroke-opacity:1"
       transform="scale(1.3284067,1.3333333)" />
    <path
       id="path69"
       d="m 582.805,72.969 c 0,-0.629 -0.614,-1.031 -1.282,-1.031 -0.882,0 -1.496,0.574 -1.82,1.703 -0.074,0.254 -0.23,0.984 -0.457,2.183 h -0.926 c -0.312,0 -0.468,0.016 -0.468,0.317 0,0.156 0.14,0.226 0.441,0.226 h 0.855 l -1.039,5.531 c -0.16,0.813 -0.3,1.414 -0.429,1.813 -0.172,0.527 -0.41,0.801 -0.727,0.801 -0.211,0 -0.383,-0.059 -0.539,-0.157 0.457,-0.074 0.684,-0.343 0.684,-0.8 0,-0.371 -0.188,-0.559 -0.571,-0.559 -0.484,0 -0.824,0.43 -0.824,0.914 0,0.629 0.582,1.031 1.25,1.031 0.356,0 0.684,-0.144 0.957,-0.445 0.453,-0.469 0.809,-1.141 1.067,-2.043 0.156,-0.555 0.296,-1.098 0.398,-1.641 l 0.824,-4.445 h 1.168 c 0.328,0 0.469,-0.015 0.469,-0.344 0,-0.128 -0.141,-0.199 -0.426,-0.199 h -1.098 c 0.086,-0.586 0.485,-2.742 0.614,-3.015 0.14,-0.297 0.34,-0.442 0.597,-0.442 0.215,0 0.399,0.059 0.555,0.156 -0.441,0.102 -0.668,0.36 -0.668,0.801 0,0.371 0.184,0.559 0.57,0.559 0.485,0 0.825,-0.43 0.825,-0.914 z"
       style="fill:#000000;fill-opacity:1;fill-rule:nonzero;stroke:none"
       transform="scale(1.3333333)" />
    <path
       id="path70"
       d="m 584.043,84.266 c 0.453,0 0.926,-0.274 1.387,-0.821 0.804,-0.937 1.543,-2.675 1.543,-4.32 0,-0.414 -0.071,-0.848 -0.215,-1.285 -0.18,-0.535 -0.524,-0.809 -1.016,-0.809 -0.453,0 -0.906,0.274 -1.379,0.821 -0.804,0.929 -1.547,2.668 -1.547,4.324 0,1.027 0.332,2.09 1.227,2.09 m 1.691,-6.93 c 0.332,0 0.5,0.383 0.5,1.16 0,0.438 -0.097,1.094 -0.3,1.949 h -1.981 c 0.25,-0.937 0.492,-1.633 0.742,-2.09 0.375,-0.675 0.727,-1.019 1.039,-1.019 m -1.882,3.516 h 1.972 c -0.191,0.816 -0.422,1.472 -0.676,1.968 -0.39,0.758 -0.753,1.141 -1.105,1.141 -0.332,0 -0.492,-0.395 -0.492,-1.172 0,-0.504 0.097,-1.148 0.301,-1.937 z"
       style="fill:#000000;fill-opacity:1;fill-rule:nonzero;stroke:none"
       transform="scale(1.3333333)" />
    <text
       id="text70"
       xml:space="preserve"
       transform="matrix(1.3333333,0,0,1.338278,750.26362,87.163647)"><tspan
         id="tspan70"
         style="font-variant:normal;font-weight:500;font-size:11.015px;font-family:'CMU Serif';writing-mode:lr-tb;fill:#000000;fill-opacity:1;fill-rule:nonzero;stroke:none"
         x="0"
         dx="0 0 0 0 0.30841979"
         y="0">Encoder</tspan></text>
    <text
       id="text71"
       xml:space="preserve"
       transform="matrix(1.3333333,0,0,1.338278,633.53572,163.63002)"><tspan
         id="tspan71"
         style="font-variant:normal;font-weight:500;font-size:11.015px;font-family:'CMU Serif';writing-mode:lr-tb;fill:#930000;fill-opacity:1;fill-rule:nonzero;stroke:none"
         x="0"
         dx="0 0 0 0 0 0 0 0 0 0 0 0 -0.30841979 0 0 0 -0.30841979"
         y="0">initialise weights</tspan></text>
    <path
       id="path71"
       d="m 495.266,57.297 c 0,-0.59 -0.575,-0.887 -1.215,-0.887 -0.551,0 -0.985,0.297 -1.317,0.887 -0.269,-0.59 -0.718,-0.887 -1.371,-0.887 -0.629,0 -1.14,0.297 -1.551,0.875 -0.343,0.5 -0.523,0.875 -0.523,1.117 0,0.118 0.066,0.18 0.191,0.18 0.118,0 0.192,-0.062 0.219,-0.18 0.242,-0.746 0.781,-1.617 1.637,-1.617 0.426,0 0.629,0.27 0.629,0.797 0,0.27 -0.231,1.27 -0.68,2.992 -0.215,0.86 -0.601,1.285 -1.152,1.285 -0.176,0 -0.344,-0.039 -0.485,-0.101 0.332,-0.129 0.5,-0.36 0.5,-0.696 0,-0.332 -0.168,-0.5 -0.511,-0.5 -0.426,0 -0.742,0.36 -0.742,0.782 0,0.594 0.601,0.886 1.226,0.886 0.539,0 0.973,-0.292 1.32,-0.886 0.243,0.594 0.704,0.886 1.368,0.886 0.617,0 1.129,-0.292 1.535,-0.871 0.347,-0.504 0.527,-0.875 0.527,-1.117 0,-0.117 -0.066,-0.183 -0.191,-0.183 -0.118,0 -0.18,0.066 -0.219,0.183 -0.219,0.731 -0.793,1.617 -1.625,1.617 -0.422,0 -0.641,-0.257 -0.641,-0.785 0,-0.164 0.063,-0.527 0.203,-1.105 l 0.438,-1.735 c 0.242,-0.961 0.641,-1.449 1.203,-1.449 0.18,0 0.344,0.039 0.484,0.102 -0.343,0.117 -0.511,0.347 -0.511,0.695 0,0.332 0.179,0.5 0.527,0.5 0.406,0 0.727,-0.371 0.727,-0.785 z"
       style="fill:#000000;fill-opacity:1;fill-rule:nonzero;stroke:none"
       transform="scale(1.3333333)" />
    <path
       id="path72"
       d="m 504.301,60.254 c 0.984,-0.297 1.496,-1.184 1.535,-2.66 0,-0.141 -0.066,-0.207 -0.207,-0.207 -0.125,0 -0.191,0.066 -0.203,0.195 -0.012,0.551 -0.129,0.977 -0.36,1.285 -0.254,0.344 -0.832,0.731 -1.394,0.731 -0.383,0 -0.793,-0.168 -1.215,-0.5 -0.246,-0.196 -0.449,-0.36 -0.602,-0.489 -0.91,-0.797 -1.691,-1.195 -2.355,-1.195 -0.191,0 -0.387,0.027 -0.578,0.09 -1.086,0.32 -1.508,1.219 -1.547,2.66 0,0.141 0.063,0.203 0.203,0.203 0.129,0 0.192,-0.062 0.207,-0.191 0.012,-0.551 0.125,-0.977 0.356,-1.285 0.246,-0.332 0.847,-0.731 1.398,-0.731 0.383,0 0.793,0.164 1.215,0.5 0.242,0.192 0.449,0.36 0.601,0.488 0.911,0.797 1.688,1.196 2.356,1.196 0.191,0 0.394,-0.028 0.59,-0.09 z"
       style="fill:#000000;fill-opacity:1;fill-rule:nonzero;stroke:none"
       transform="scale(1.3333333)" />
    <path
       id="path73"
       d="m 510.25,62.301 c 1.395,0 2.703,-0.489 3.891,-1.449 1.191,-0.965 1.972,-2.149 2.316,-3.524 0.117,-0.473 0.18,-0.91 0.18,-1.285 0,-1.129 -0.602,-1.887 -1.817,-2.273 -0.539,-0.165 -1.304,-0.254 -2.304,-0.254 l 0.078,-0.286 -0.129,-0.089 -0.895,0.41 c -1.164,0.078 -2.14,0.437 -2.945,1.082 -0.512,0.41 -0.832,0.887 -0.973,1.437 -0.117,0.461 -0.062,0.875 0.332,0.875 0.141,0 0.282,-0.078 0.45,-0.218 0.164,-0.141 0.269,-0.411 0.308,-0.825 0.035,-0.5 0.203,-0.871 0.524,-1.117 0.625,-0.5 1.343,-0.758 2.164,-0.769 l -0.961,3.867 c -0.192,0.758 -0.371,1.387 -0.578,1.847 -0.203,0.465 -0.434,0.797 -0.703,1.004 -0.676,0.551 -1.383,0.836 -2.126,0.836 l -0.601,0.731 m 8.68,-7.426 c 0.281,0.375 0.421,0.848 0.421,1.414 0,0.332 -0.05,0.695 -0.14,1.078 -0.371,1.504 -0.984,2.598 -1.844,3.278 -0.449,0.359 -0.894,0.601 -1.367,0.746 -0.399,0.113 -0.988,0.179 -1.793,0.179 h -1.5 l -0.012,-0.066 0.539,-0.449 c 0.395,-0.321 0.731,-0.707 1.024,-1.145 0.5,-0.742 0.894,-1.734 1.203,-2.953 l 0.715,-2.941 c 1.41,0.011 2.332,0.293 2.754,0.859 z"
       style="fill:#000000;fill-opacity:1;fill-rule:nonzero;stroke:none"
       transform="scale(1.3333333)" />
    <path
       id="path74"
       d="m 520.559,60.473 c 0,-0.082 -0.09,-0.125 -0.282,-0.125 h -0.73 c 0.234,-0.946 0.351,-1.438 0.351,-1.473 0,-0.191 -0.101,-0.281 -0.289,-0.281 -0.207,0 -0.336,0.117 -0.39,0.355 l -0.336,1.399 h -0.805 c -0.199,0 -0.297,0.007 -0.297,0.199 0,0.101 0.09,0.144 0.281,0.144 h 0.731 c -0.441,1.774 -0.66,2.707 -0.66,2.825 0,0.511 0.344,0.863 0.851,0.863 0.344,0 0.641,-0.152 0.907,-0.473 0.214,-0.261 0.371,-0.515 0.468,-0.761 0.036,-0.102 0.055,-0.153 0.055,-0.18 0,-0.082 -0.047,-0.129 -0.137,-0.129 -0.07,0 -0.125,0.047 -0.16,0.144 -0.308,0.754 -0.679,1.129 -1.125,1.129 -0.152,0 -0.234,-0.129 -0.234,-0.375 0,-0.136 0.019,-0.281 0.054,-0.425 l 0.641,-2.618 h 0.809 c 0.234,0 0.297,-0.015 0.297,-0.218 z"
       style="fill:#000000;fill-opacity:1;fill-rule:nonzero;stroke:none"
       transform="scale(1.3333333)" />
    <path
       id="path75"
       d="m 524.785,60.883 c 0,-0.383 -0.371,-0.617 -0.769,-0.617 -0.442,0 -0.813,0.207 -1.121,0.636 -0.09,-0.355 -0.399,-0.636 -0.825,-0.636 -0.371,0 -0.644,0.289 -0.832,0.879 -0.09,0.3 -0.136,0.472 -0.136,0.527 0,0.082 0.046,0.129 0.144,0.129 0.047,0 0.074,-0.008 0.102,-0.028 0.043,-0.082 0.07,-0.144 0.078,-0.211 0.164,-0.687 0.371,-1.035 0.617,-1.035 0.152,0 0.234,0.129 0.234,0.383 0,0.117 -0.043,0.363 -0.132,0.735 l -0.52,2.062 c -0.023,0.117 -0.078,0.355 -0.078,0.402 0,0.18 0.098,0.27 0.289,0.27 0.18,0 0.297,-0.09 0.359,-0.27 l 0.172,-0.656 c 0.102,-0.391 0.164,-0.644 0.192,-0.762 l 0.281,-1.164 c 0.019,-0.07 0.09,-0.191 0.207,-0.363 0.246,-0.344 0.527,-0.637 0.969,-0.637 0.109,0 0.199,0.02 0.281,0.067 -0.274,0.082 -0.406,0.254 -0.406,0.5 0,0.234 0.125,0.351 0.371,0.351 0.297,0 0.523,-0.261 0.523,-0.562 z"
       style="fill:#000000;fill-opacity:1;fill-rule:nonzero;stroke:none"
       transform="scale(1.3333333)" />
    <path
       id="path76"
       d="m 529.426,62.973 c 0,-0.082 -0.043,-0.129 -0.145,-0.129 -0.07,0 -0.125,0.066 -0.152,0.191 -0.18,0.719 -0.399,1.082 -0.641,1.082 -0.156,0 -0.238,-0.129 -0.238,-0.383 0,-0.117 0.039,-0.336 0.117,-0.652 l 0.516,-2.043 c 0.047,-0.176 0.066,-0.273 0.066,-0.32 0,-0.18 -0.101,-0.274 -0.301,-0.274 -0.187,0 -0.316,0.11 -0.378,0.321 -0.192,-0.336 -0.461,-0.5 -0.805,-0.5 -0.59,0 -1.106,0.3 -1.559,0.898 -0.414,0.563 -0.625,1.145 -0.625,1.754 0,0.789 0.465,1.461 1.223,1.461 0.391,0 0.769,-0.207 1.133,-0.625 0.097,0.344 0.406,0.625 0.832,0.625 0.625,0 0.812,-0.734 0.957,-1.406 m -1.418,-2.09 c 0.082,0.191 0.125,0.316 0.125,0.398 0,0.039 -0.008,0.082 -0.016,0.149 l -0.445,1.742 c -0.027,0.101 -0.09,0.207 -0.172,0.316 -0.336,0.418 -0.66,0.629 -0.977,0.629 -0.355,0 -0.535,-0.273 -0.535,-0.808 0,-0.219 0.055,-0.547 0.164,-0.981 0.188,-0.773 0.461,-1.289 0.797,-1.574 0.18,-0.152 0.352,-0.227 0.524,-0.227 0.246,0 0.425,0.121 0.535,0.356 z"
       style="fill:#000000;fill-opacity:1;fill-rule:nonzero;stroke:none"
       transform="scale(1.3333333)" />
    <path
       id="path77"
       d="m 532.277,58.641 c 0,-0.246 -0.117,-0.364 -0.359,-0.364 -0.254,0 -0.508,0.254 -0.508,0.508 0,0.246 0.125,0.363 0.371,0.363 0.254,0 0.496,-0.253 0.496,-0.507 m -0.226,4.386 c -0.199,0.719 -0.489,1.082 -0.86,1.082 -0.117,0 -0.179,-0.082 -0.179,-0.257 0,-0.153 0.261,-0.934 0.797,-2.352 0.07,-0.207 0.109,-0.371 0.109,-0.488 0,-0.446 -0.309,-0.774 -0.754,-0.774 -0.387,0 -0.695,0.227 -0.922,0.692 -0.18,0.371 -0.273,0.617 -0.273,0.734 0,0.082 0.047,0.117 0.148,0.117 0.117,0 0.133,-0.054 0.172,-0.179 0.207,-0.727 0.488,-1.09 0.848,-1.09 0.117,0 0.183,0.082 0.183,0.254 0,0.125 -0.027,0.273 -0.09,0.445 -0.21,0.57 -0.425,1.18 -0.609,1.66 -0.133,0.363 -0.207,0.609 -0.207,0.738 0,0.446 0.324,0.77 0.762,0.77 0.386,0 0.695,-0.227 0.922,-0.68 0.172,-0.355 0.261,-0.601 0.261,-0.734 0,-0.082 -0.043,-0.129 -0.144,-0.129 -0.027,0 -0.164,0.082 -0.164,0.191 z"
       style="fill:#000000;fill-opacity:1;fill-rule:nonzero;stroke:none"
       transform="scale(1.3333333)" />
    <path
       id="path78"
       d="m 537.691,63.035 c -0.211,0.719 -0.507,1.082 -0.879,1.082 -0.117,0 -0.179,-0.09 -0.179,-0.265 0,-0.125 0.055,-0.336 0.16,-0.618 0.363,-0.988 0.543,-1.644 0.543,-1.98 0,-0.633 -0.426,-0.988 -1.059,-0.988 -0.531,0 -0.996,0.234 -1.367,0.718 -0.07,-0.402 -0.387,-0.718 -0.848,-0.718 -0.507,0 -0.707,0.472 -0.832,0.879 -0.093,0.293 -0.136,0.464 -0.136,0.527 0,0.082 0.043,0.129 0.144,0.129 0.043,0 0.071,-0.008 0.098,-0.028 0.047,-0.082 0.074,-0.144 0.082,-0.211 0.164,-0.687 0.371,-1.035 0.617,-1.035 0.16,0 0.242,0.129 0.242,0.383 0,0.117 -0.043,0.363 -0.144,0.735 l -0.516,2.062 c -0.027,0.117 -0.082,0.355 -0.082,0.402 0,0.18 0.102,0.27 0.301,0.27 0.172,0 0.297,-0.09 0.359,-0.27 0.02,-0.047 0.075,-0.273 0.172,-0.664 l 0.192,-0.808 0.273,-1.035 c 0.098,-0.211 0.25,-0.418 0.441,-0.637 0.262,-0.289 0.59,-0.438 0.977,-0.438 0.301,0 0.445,0.203 0.445,0.59 0,0.348 -0.191,1.039 -0.578,2.074 -0.066,0.164 -0.094,0.297 -0.094,0.418 0,0.446 0.336,0.77 0.77,0.77 0.398,0 0.715,-0.227 0.941,-0.68 0.172,-0.363 0.262,-0.609 0.262,-0.726 0,-0.082 -0.043,-0.129 -0.144,-0.129 -0.028,0 -0.161,0.082 -0.161,0.191 z"
       style="fill:#000000;fill-opacity:1;fill-rule:nonzero;stroke:none"
       transform="scale(1.3333333)" />
    <path
       id="path79"
       d="m 688.785,56.121 h 17.231 c 4.769,0 8.613,3.856 8.613,8.649 v 9.878 c 0,4.79 -3.844,8.649 -8.613,8.649 h -17.231 c -4.769,0 -8.613,-3.859 -8.613,-8.649 V 64.77 c 0,-4.793 3.844,-8.649 8.613,-8.649 z"
       style="fill:#f4d7d7;fill-opacity:0.525692;fill-rule:nonzero;stroke:none"
       transform="scale(1.3333333)" />
    <path
       id="path80"
       d="m 691.339,56.121 h 17.295 c 4.787,0 8.645,3.856 8.645,8.649 v 9.878 c 0,4.79 -3.858,8.649 -8.645,8.649 h -17.295 c -4.787,0 -8.645,-3.859 -8.645,-8.649 V 64.77 c 0,-4.793 3.858,-8.649 8.645,-8.649 z"
       style="fill:none;stroke:#ff2a2a;stroke-width:0.746258;stroke-linecap:butt;stroke-linejoin:miter;stroke-miterlimit:4;stroke-dasharray:none;stroke-opacity:0.411067"
       transform="scale(1.3284067,1.3333333)" />
    <path
       id="path81"
       d="m 687.02,71.02 c 0.699,-0.352 1.476,-1.176 1.918,-1.926 0.273,-0.457 0.593,-1.129 0.976,-2.032 0.41,-0.964 0.715,-1.636 0.941,-2.05 0.247,-0.457 0.946,-1.129 1.618,-1.129 0.468,0 0.773,0.336 0.652,0.84 -0.074,0.289 -0.074,0.472 -0.031,0.535 0.109,0.137 0.261,0.199 0.472,0.199 l 0.184,-0.031 c 0.383,-0.063 0.656,-0.367 0.793,-0.934 0.211,-0.855 -0.457,-1.25 -1.297,-1.25 -1.461,0 -2.711,0.731 -3.746,2.215 -0.305,0.426 -0.637,1.117 -1.004,2.078 -0.625,1.637 -1.187,2.66 -1.719,3.059 -0.277,0.211 -0.566,0.41 -0.871,0.609 -0.441,0.262 -0.73,0.488 -0.867,0.656 -0.488,0.598 -0.82,1.133 -0.988,1.637 l 0.332,0.352 c 0.277,-0.504 0.582,-0.946 0.929,-1.36 0.29,-0.351 0.657,-0.519 1.098,-0.519 0.442,0 1.082,0.32 1.887,0.961 0.246,0.246 0.609,0.476 1.113,0.687 0.32,0.141 0.762,0.199 1.356,0.199 0.472,0 1.05,-0.273 1.707,-0.839 0.609,-0.504 1.035,-1.297 1.277,-2.368 0.078,-0.398 0.121,-0.718 0.121,-0.964 l -0.488,0.105 c -0.074,0.535 -0.164,0.934 -0.242,1.164 -0.243,0.75 -0.957,1.59 -1.829,1.59 -0.82,0 -1.992,-0.566 -2.664,-1.055 -0.367,-0.277 -0.914,-0.414 -1.628,-0.429 z"
       style="fill:#000000;fill-opacity:1;fill-rule:nonzero;stroke:none"
       transform="scale(1.3333333)" />
    <path
       id="path82"
       d="m 703.824,70.137 c 0,-0.985 -0.969,-1.516 -2.023,-1.516 h -3.574 c -0.25,0 -0.356,0.012 -0.356,0.262 0,0.172 0.215,0.16 0.344,0.16 0.324,0.012 0.515,0.035 0.57,0.043 0.055,0.012 0.074,0.043 0.074,0.098 0,0.023 -0.007,0.086 -0.043,0.195 l -1.421,5.738 c -0.051,0.238 -0.161,0.379 -0.321,0.434 -0.078,0.019 -0.269,0.031 -0.605,0.031 -0.223,0 -0.332,0.086 -0.332,0.258 0,0.109 0.109,0.164 0.332,0.164 h 3.801 c 0.703,0 1.347,-0.215 1.96,-0.637 0.68,-0.465 1.024,-1.039 1.024,-1.707 0,-0.855 -0.699,-1.375 -1.465,-1.523 0.949,-0.231 2.035,-0.953 2.035,-2 m -2.176,-1.094 c 0.743,0 1.122,0.348 1.122,1.051 0,0.551 -0.215,1.004 -0.668,1.371 -0.454,0.367 -0.957,0.539 -1.508,0.539 h -1.496 l 0.644,-2.594 c 0.086,-0.367 0.086,-0.367 0.539,-0.367 m 1.668,3.73 c 0.153,0.247 0.227,0.497 0.227,0.766 0,0.563 -0.215,1.051 -0.656,1.449 -0.442,0.399 -0.938,0.594 -1.508,0.594 h -1.453 c -0.106,0 -0.184,0 -0.227,-0.012 -0.062,0 -0.098,-0.019 -0.098,-0.054 0,-0.008 0,-0.043 0.012,-0.086 0.336,-1.371 0.594,-2.41 0.766,-3.102 h 1.98 c 0.465,0 0.778,0.152 0.957,0.445 z"
       style="fill:#000000;fill-opacity:1;fill-rule:nonzero;stroke:none"
       transform="scale(1.3333333)" />
    <path
       id="path83"
       d="m 705.289,74.309 c 0,-0.262 0.031,-0.477 0.086,-0.649 0,-0.109 -0.055,-0.164 -0.172,-0.164 -0.055,0 -0.098,0.024 -0.121,0.043 -0.051,0.055 -0.664,2.379 -0.664,2.551 0,0.098 0.051,0.152 0.16,0.152 0.055,0 0.129,-0.054 0.227,-0.172 l 0.484,-0.574 c 0.375,0.496 0.981,0.746 1.797,0.746 0.711,0 1.336,-0.293 1.894,-0.867 0.563,-0.57 0.84,-1.207 0.84,-1.922 0,-0.508 -0.172,-0.941 -0.527,-1.285 -0.16,-0.141 -0.375,-0.262 -0.645,-0.356 -0.25,-0.054 -0.484,-0.121 -0.722,-0.187 l -0.711,-0.191 c -0.356,-0.098 -0.625,-0.5 -0.625,-0.93 0,-0.465 0.183,-0.867 0.562,-1.211 0.375,-0.348 0.797,-0.52 1.258,-0.52 0.992,0 1.488,0.539 1.488,1.61 0,0.195 -0.046,0.41 -0.046,0.594 v 0.035 c 0.035,0.074 0.089,0.117 0.175,0.117 0.094,0 0.161,-0.086 0.203,-0.246 l 0.571,-2.348 c 0,-0.097 -0.055,-0.148 -0.16,-0.148 -0.055,0 -0.129,0.051 -0.227,0.172 l -0.465,0.562 c -0.301,-0.488 -0.804,-0.734 -1.527,-0.734 -0.68,0 -1.293,0.258 -1.832,0.765 -0.559,0.52 -0.84,1.114 -0.84,1.793 0,0.778 0.508,1.395 1.145,1.567 l 1.128,0.293 c 0.582,0.164 0.946,0.367 0.946,1.09 0,0.5 -0.192,0.941 -0.571,1.332 -0.375,0.386 -0.804,0.593 -1.289,0.593 -1.054,0 -1.82,-0.465 -1.82,-1.511 z"
       style="fill:#000000;fill-opacity:1;fill-rule:nonzero;stroke:none"
       transform="scale(1.3333333)" />
    <text
       id="text83"
       xml:space="preserve"
       transform="matrix(1.3333333,0,0,1.338278,2.3598907,25.855029)"><tspan
         id="tspan83"
         style="font-variant:normal;font-weight:700;font-size:11.015px;font-family:'CMU Serif';writing-mode:lr-tb;fill:#000000;fill-opacity:1;fill-rule:nonzero;stroke:none"
         x="0"
         y="0">Stage 1</tspan><tspan
         id="tspan84"
         style="font-variant:normal;font-weight:700;font-size:11.015px;font-family:'CMU Serif';writing-mode:lr-tb;fill:#000000;fill-opacity:1;fill-rule:nonzero;stroke:none"
         x="373.95935"
         y="1.466514">Stage 2</tspan></text>
    <path
       id="path84"
       d="M 1.835,22.828 H 41.987"
       style="fill:none;stroke:#000000;stroke-width:0.558263;stroke-linecap:butt;stroke-linejoin:miter;stroke-miterlimit:3.2;stroke-dasharray:none;stroke-opacity:1"
       transform="scale(1.3284067,1.3333333)" />
    <path
       id="path85"
       d="m 377.183,24.301 h 40.152"
       style="fill:none;stroke:#000000;stroke-width:0.558263;stroke-linecap:butt;stroke-linejoin:miter;stroke-miterlimit:3.2;stroke-dasharray:none;stroke-opacity:1"
       transform="scale(1.3284067,1.3333333)" />
    <path
       id="path86"
       d="M 200.024,99.586 V 111.32 H 582.61 V 99.207"
       style="fill:none;stroke:#930000;stroke-width:0.886746;stroke-linecap:butt;stroke-linejoin:miter;stroke-miterlimit:1.9;stroke-dasharray:5.32046, 0.886746;stroke-dashoffset:0;stroke-opacity:0.992095"
       transform="scale(1.3284067,1.3333333)" />
    <path
       id="path87"
       d="m -98.422,582.61 -3.836,2.219 v -4.435 z"
       style="fill:#930000;fill-opacity:1;fill-rule:evenodd;stroke:#930000;stroke-width:0.591164;stroke-linecap:butt;stroke-linejoin:miter;stroke-miterlimit:4;stroke-dasharray:none;stroke-opacity:1"
       transform="matrix(0,-1.3333333,1.3284067,0,0,0)" />
    <path
       id="path88"
       d="m 380.139,32.375 v 68.301 h 91.377 V 97.629 C 456.021,97.277 441.24,97.98 428.329,96.297 415.194,94.586 403.997,90.398 395.943,80.113 388.419,70.508 383.644,55.578 382.601,32.375 Z"
       style="fill:#d2e8fe;fill-opacity:1;fill-rule:nonzero;stroke:#000000;stroke-width:1.25858;stroke-linecap:butt;stroke-linejoin:miter;stroke-miterlimit:4;stroke-dasharray:none;stroke-opacity:1"
       transform="scale(1.3284067,1.3333333)" />
    <path
       id="path89"
       d="M 394.5,100.656 V 80.094 C 387.008,70.488 382.25,55.559 381.211,32.352 h -2.457 v 68.304 z"
       style="fill:#d2e8fe;fill-opacity:1;fill-rule:nonzero;stroke:none"
       transform="scale(1.3333333)" />
    <path
       id="path90"
       d="m 426.77,96.277 v 4.379 h 43.023 v -3.051 c -15.438,-0.351 -30.16,0.356 -43.023,-1.328 z"
       style="fill:#d2ffd8;fill-opacity:1;fill-rule:nonzero;stroke:none"
       transform="scale(1.3333333)" />
    <path
       id="path91"
       d="M 426.77,96.277 C 413.684,94.562 402.523,90.379 394.5,80.094 v 20.562 h 32.27 z"
       style="fill:#fbd2fc;fill-opacity:1;fill-rule:nonzero;stroke:none"
       transform="scale(1.3333333)" />
    <path
       id="path92"
       d="m 385.082,95.785 c 1.395,0 2.699,-0.488 3.891,-1.449 1.191,-0.965 1.972,-2.148 2.316,-3.524 0.117,-0.472 0.18,-0.91 0.18,-1.281 0,-1.133 -0.602,-1.89 -1.817,-2.277 C 389.113,87.09 388.344,87 387.348,87 l 0.078,-0.285 -0.129,-0.09 -0.899,0.41 c -1.164,0.078 -2.136,0.438 -2.941,1.082 -0.512,0.41 -0.832,0.887 -0.973,1.438 -0.117,0.465 -0.066,0.875 0.332,0.875 0.141,0 0.282,-0.078 0.45,-0.219 0.164,-0.141 0.265,-0.41 0.304,-0.824 0.039,-0.5 0.207,-0.871 0.528,-1.117 0.625,-0.5 1.343,-0.758 2.16,-0.77 l -0.957,3.867 c -0.196,0.758 -0.371,1.387 -0.578,1.848 -0.203,0.465 -0.434,0.797 -0.703,1.004 -0.68,0.551 -1.383,0.836 -2.125,0.836 l -0.602,0.73 m 8.68,-7.426 c 0.281,0.375 0.422,0.848 0.422,1.414 0,0.336 -0.051,0.696 -0.141,1.079 -0.371,1.503 -0.988,2.597 -1.844,3.277 -0.449,0.359 -0.898,0.605 -1.371,0.746 -0.394,0.113 -0.984,0.18 -1.793,0.18 h -1.496 l -0.012,-0.067 0.535,-0.449 c 0.399,-0.32 0.731,-0.707 1.028,-1.141 0.496,-0.746 0.894,-1.738 1.203,-2.957 l 0.715,-2.941 c 1.41,0.012 2.328,0.297 2.754,0.859 z"
       style="fill:#000000;fill-opacity:1;fill-rule:nonzero;stroke:none"
       transform="scale(1.3333333)" />
    <path
       id="path93"
       d="m 395.391,93.957 c 0,-0.078 -0.09,-0.125 -0.282,-0.125 h -0.734 c 0.238,-0.945 0.355,-1.434 0.355,-1.473 0,-0.191 -0.101,-0.281 -0.292,-0.281 -0.208,0 -0.333,0.117 -0.387,0.356 l -0.336,1.398 h -0.805 c -0.199,0 -0.301,0.008 -0.301,0.199 0,0.102 0.094,0.145 0.282,0.145 h 0.734 c -0.445,1.773 -0.66,2.707 -0.66,2.824 0,0.512 0.344,0.863 0.851,0.863 0.344,0 0.641,-0.152 0.903,-0.472 0.219,-0.262 0.371,-0.516 0.472,-0.762 0.036,-0.098 0.055,-0.152 0.055,-0.18 0,-0.082 -0.047,-0.129 -0.137,-0.129 -0.074,0 -0.129,0.047 -0.164,0.145 -0.308,0.754 -0.679,1.129 -1.121,1.129 -0.152,0 -0.234,-0.129 -0.234,-0.375 0,-0.137 0.015,-0.281 0.055,-0.426 l 0.64,-2.617 h 0.805 c 0.238,0 0.301,-0.016 0.301,-0.219 z"
       style="fill:#000000;fill-opacity:1;fill-rule:nonzero;stroke:none"
       transform="scale(1.3333333)" />
    <path
       id="path94"
       d="m 399.617,94.367 c 0,-0.383 -0.371,-0.617 -0.769,-0.617 -0.446,0 -0.817,0.207 -1.125,0.637 -0.09,-0.356 -0.395,-0.637 -0.821,-0.637 -0.371,0 -0.644,0.289 -0.836,0.883 -0.089,0.297 -0.132,0.469 -0.132,0.523 0,0.082 0.043,0.129 0.144,0.129 0.043,0 0.07,-0.008 0.098,-0.027 0.047,-0.082 0.074,-0.145 0.082,-0.207 0.164,-0.692 0.371,-1.039 0.617,-1.039 0.152,0 0.234,0.129 0.234,0.383 0,0.117 -0.047,0.363 -0.136,0.734 l -0.516,2.062 c -0.027,0.121 -0.082,0.356 -0.082,0.403 0,0.179 0.102,0.269 0.289,0.269 0.184,0 0.301,-0.09 0.363,-0.269 l 0.172,-0.656 c 0.102,-0.391 0.164,-0.645 0.192,-0.762 l 0.281,-1.164 c 0.016,-0.071 0.09,-0.192 0.207,-0.364 0.242,-0.343 0.523,-0.636 0.969,-0.636 0.109,0 0.199,0.019 0.281,0.066 -0.274,0.082 -0.41,0.254 -0.41,0.5 0,0.234 0.129,0.352 0.371,0.352 0.301,0 0.527,-0.262 0.527,-0.563 z"
       style="fill:#000000;fill-opacity:1;fill-rule:nonzero;stroke:none"
       transform="scale(1.3333333)" />
    <path
       id="path95"
       d="m 404.258,96.457 c 0,-0.082 -0.043,-0.129 -0.145,-0.129 -0.07,0 -0.125,0.067 -0.152,0.192 -0.184,0.718 -0.399,1.082 -0.645,1.082 -0.152,0 -0.234,-0.129 -0.234,-0.383 0,-0.117 0.035,-0.336 0.117,-0.653 l 0.516,-2.043 c 0.047,-0.175 0.062,-0.273 0.062,-0.32 0,-0.18 -0.097,-0.273 -0.297,-0.273 -0.191,0 -0.316,0.109 -0.378,0.32 -0.192,-0.336 -0.465,-0.5 -0.809,-0.5 -0.586,0 -1.102,0.301 -1.555,0.898 -0.418,0.563 -0.625,1.145 -0.625,1.754 0,0.789 0.461,1.461 1.223,1.461 0.387,0 0.769,-0.207 1.129,-0.625 0.101,0.344 0.41,0.625 0.836,0.625 0.621,0 0.812,-0.734 0.957,-1.406 m -1.422,-2.09 c 0.082,0.192 0.129,0.317 0.129,0.399 0,0.039 -0.008,0.082 -0.02,0.148 l -0.441,1.742 c -0.027,0.102 -0.09,0.211 -0.172,0.317 -0.336,0.418 -0.66,0.629 -0.98,0.629 -0.352,0 -0.532,-0.274 -0.532,-0.809 0,-0.219 0.055,-0.547 0.16,-0.981 0.192,-0.773 0.465,-1.289 0.797,-1.57 0.184,-0.156 0.356,-0.23 0.528,-0.23 0.242,0 0.425,0.121 0.531,0.355 z"
       style="fill:#000000;fill-opacity:1;fill-rule:nonzero;stroke:none"
       transform="scale(1.3333333)" />
    <path
       id="path96"
       d="m 407.109,92.125 c 0,-0.246 -0.117,-0.363 -0.363,-0.363 -0.254,0 -0.504,0.254 -0.504,0.508 0,0.246 0.125,0.363 0.371,0.363 0.25,0 0.496,-0.254 0.496,-0.508 m -0.226,4.387 c -0.199,0.718 -0.488,1.082 -0.86,1.082 -0.117,0 -0.179,-0.082 -0.179,-0.258 0,-0.152 0.261,-0.934 0.793,-2.352 0.074,-0.207 0.109,-0.371 0.109,-0.488 0,-0.445 -0.308,-0.773 -0.75,-0.773 -0.391,0 -0.695,0.226 -0.922,0.691 -0.183,0.371 -0.273,0.617 -0.273,0.734 0,0.082 0.047,0.118 0.144,0.118 0.117,0 0.137,-0.055 0.172,-0.18 0.211,-0.727 0.488,-1.09 0.852,-1.09 0.117,0 0.179,0.082 0.179,0.254 0,0.125 -0.027,0.273 -0.089,0.445 -0.207,0.571 -0.426,1.18 -0.606,1.66 -0.137,0.364 -0.207,0.61 -0.207,0.739 0,0.445 0.324,0.769 0.758,0.769 0.391,0 0.699,-0.226 0.926,-0.679 0.172,-0.356 0.261,-0.602 0.261,-0.735 0,-0.082 -0.046,-0.129 -0.144,-0.129 -0.027,0 -0.164,0.082 -0.164,0.192 z"
       style="fill:#000000;fill-opacity:1;fill-rule:nonzero;stroke:none"
       transform="scale(1.3333333)" />
    <path
       id="path97"
       d="m 412.52,96.52 c -0.208,0.718 -0.504,1.082 -0.875,1.082 -0.122,0 -0.184,-0.09 -0.184,-0.266 0,-0.125 0.055,-0.336 0.164,-0.617 0.363,-0.989 0.543,-1.645 0.543,-1.981 0,-0.633 -0.426,-0.988 -1.059,-0.988 -0.535,0 -0.996,0.234 -1.367,0.719 -0.07,-0.403 -0.39,-0.719 -0.851,-0.719 -0.504,0 -0.703,0.473 -0.832,0.883 -0.09,0.289 -0.137,0.461 -0.137,0.523 0,0.082 0.047,0.129 0.144,0.129 0.047,0 0.075,-0.008 0.102,-0.027 0.047,-0.082 0.074,-0.145 0.082,-0.207 0.164,-0.692 0.371,-1.039 0.613,-1.039 0.164,0 0.246,0.129 0.246,0.383 0,0.117 -0.047,0.363 -0.144,0.734 l -0.516,2.062 c -0.027,0.121 -0.082,0.356 -0.082,0.403 0,0.179 0.098,0.269 0.297,0.269 0.172,0 0.301,-0.09 0.363,-0.269 0.02,-0.047 0.075,-0.274 0.172,-0.664 l 0.192,-0.809 0.269,-1.035 c 0.102,-0.211 0.254,-0.418 0.445,-0.637 0.262,-0.289 0.586,-0.437 0.977,-0.437 0.297,0 0.441,0.203 0.441,0.593 0,0.344 -0.187,1.036 -0.578,2.071 -0.062,0.164 -0.09,0.297 -0.09,0.418 0,0.445 0.336,0.769 0.77,0.769 0.398,0 0.715,-0.226 0.941,-0.679 0.172,-0.364 0.262,-0.61 0.262,-0.727 0,-0.082 -0.043,-0.129 -0.144,-0.129 -0.028,0 -0.164,0.082 -0.164,0.192 z"
       style="fill:#000000;fill-opacity:1;fill-rule:nonzero;stroke:none"
       transform="scale(1.3333333)" />
    <path
       id="path98"
       d="M 301.164,21.457 V 44.07 h 30.252 v -1.008 c -5.128,-0.117 -10.021,0.114 -14.299,-0.441 -4.348,-0.566 -8.057,-1.953 -10.723,-5.359 -2.49,-3.18 -4.07,-8.125 -4.415,-15.805 z"
       style="fill:none;stroke:#000000;stroke-width:0.854244;stroke-linecap:butt;stroke-linejoin:miter;stroke-miterlimit:4;stroke-dasharray:none;stroke-opacity:1"
       transform="scale(1.3284067,1.3333333)" />
    <text
       id="text98"
       xml:space="preserve"
       transform="matrix(1.3333333,0,0,1.338278,425.97802,50.778709)"><tspan
         id="tspan98"
         style="font-style:italic;font-variant:normal;font-weight:700;font-size:10.0081px;font-family:'CMU Serif';writing-mode:lr-tb;fill:#000000;fill-opacity:1;fill-rule:nonzero;stroke:none"
         x="0"
         y="0">N</tspan></text>
    <text
       id="text99"
       xml:space="preserve"
       transform="matrix(1.3333333,0,0,1.3382778,436.61079,52.668488)"><tspan
         id="tspan99"
         style="font-style:italic;font-variant:normal;font-weight:700;font-size:6.83998px;font-family:'CMU Serif';writing-mode:lr-tb;fill:#000000;fill-opacity:1;fill-rule:nonzero;stroke:none"
         x="0"
         y="0">c</tspan></text>
    <path
       id="path99"
       d="m 316.419,46.246 v 5.586"
       style="fill:none;stroke:#000000;stroke-width:1.86225;stroke-linecap:butt;stroke-linejoin:miter;stroke-miterlimit:4;stroke-dasharray:none;stroke-opacity:1"
       transform="scale(1.3284067,1.3333333)" />
    <path
       id="path100"
       d="m 53.98,-316.419 -3.222,1.862 v -3.724 z"
       style="fill:#000000;fill-opacity:1;fill-rule:evenodd;stroke:#000000;stroke-width:0.4966;stroke-linecap:butt;stroke-linejoin:miter;stroke-miterlimit:4;stroke-dasharray:none;stroke-opacity:1"
       transform="matrix(0,1.3333333,-1.3284067,0,0,0)" />
    <path
       id="path101"
       d="M 685.396,21.457 V 44.07 h 30.252 v -1.008 c -5.132,-0.117 -10.025,0.114 -14.299,-0.441 -4.348,-0.566 -8.057,-1.953 -10.723,-5.359 -2.49,-3.18 -4.07,-8.125 -4.415,-15.805 z"
       style="fill:none;stroke:#000000;stroke-width:0.854244;stroke-linecap:butt;stroke-linejoin:miter;stroke-miterlimit:4;stroke-dasharray:none;stroke-opacity:1"
       transform="scale(1.3284067,1.3333333)" />
    <path
       id="path102"
       d="m 700.651,46.246 v 5.586"
       style="fill:none;stroke:#000000;stroke-width:1.86225;stroke-linecap:butt;stroke-linejoin:miter;stroke-miterlimit:4;stroke-dasharray:none;stroke-opacity:1"
       transform="scale(1.3284067,1.3333333)" />
    <path
       id="path103"
       d="m 53.98,-700.651 -3.222,1.862 v -3.725 z"
       style="fill:#000000;fill-opacity:1;fill-rule:evenodd;stroke:#000000;stroke-width:0.4966;stroke-linecap:butt;stroke-linejoin:miter;stroke-miterlimit:4;stroke-dasharray:none;stroke-opacity:1"
       transform="matrix(0,1.3333333,-1.3284067,0,0,0)" />
    <text
       id="text103"
       xml:space="preserve"
       transform="matrix(1.3333333,0,0,1.3382779,936.35829,51.158112)"><tspan
         id="tspan103"
         style="font-style:italic;font-variant:normal;font-weight:700;font-size:10.4215px;font-family:'CMU Serif';writing-mode:lr-tb;fill:#000000;fill-opacity:1;fill-rule:nonzero;stroke:none"
         x="0"
         y="0">N</tspan></text>
    <text
       id="text104"
       xml:space="preserve"
       transform="matrix(1.3333333,0,0,1.3382778,947.02628,52.668488)"><tspan
         id="tspan104"
         style="font-style:italic;font-variant:normal;font-weight:700;font-size:6.83998px;font-family:'CMU Serif';writing-mode:lr-tb;fill:#000000;fill-opacity:1;fill-rule:nonzero;stroke:none"
         x="0"
         y="0">c</tspan></text>
  </g>
</svg>
